<svg width="943" height="438" viewBox="0 0 943 438" fill="none" xmlns="http://www.w3.org/2000/svg">
<path d="M348.75 400V310H357.938V350.562H407.688V310H416.813V400H407.688V359.375H357.938V400H348.75ZM462.884 401.875C456.3 401.875 450.592 400.417 445.759 397.5C440.967 394.583 437.238 390.479 434.571 385.187C431.905 379.896 430.571 373.687 430.571 366.562C430.571 359.187 431.884 352.812 434.509 347.437C437.134 342.062 440.821 337.917 445.571 335C450.363 332.083 456.009 330.625 462.509 330.625C469.175 330.625 474.863 332.167 479.571 335.25C484.28 338.292 487.842 342.667 490.259 348.375C492.675 354.083 493.78 360.896 493.571 368.812H484.196V365.563C484.03 356.812 482.134 350.208 478.509 345.75C474.925 341.292 469.675 339.062 462.759 339.062C455.509 339.062 449.946 341.417 446.071 346.125C442.238 350.833 440.321 357.542 440.321 366.25C440.321 374.75 442.238 381.354 446.071 386.062C449.946 390.729 455.425 393.062 462.509 393.062C467.342 393.062 471.55 391.958 475.134 389.75C478.759 387.5 481.613 384.271 483.696 380.062L492.259 383.375C489.592 389.25 485.655 393.812 480.446 397.062C475.28 400.271 469.425 401.875 462.884 401.875ZM437.071 368.812V361.125H488.634V368.812H437.071ZM533.629 401.875C527.337 401.875 521.962 400.313 517.504 397.187C513.046 394.021 509.629 389.75 507.254 384.375C504.879 379 503.691 372.937 503.691 366.187C503.691 359.479 504.858 353.437 507.191 348.062C509.566 342.687 512.962 338.437 517.379 335.312C521.796 332.187 527.087 330.625 533.254 330.625C539.587 330.625 544.921 332.167 549.254 335.25C553.587 338.333 556.858 342.562 559.066 347.937C561.316 353.271 562.441 359.354 562.441 366.187C562.441 372.896 561.337 378.958 559.129 384.375C556.921 389.75 553.671 394.021 549.379 397.187C545.087 400.313 539.837 401.875 533.629 401.875ZM534.566 393.312C539.358 393.312 543.316 392.146 546.441 389.812C549.566 387.479 551.9 384.271 553.441 380.187C554.983 376.062 555.754 371.396 555.754 366.187C555.754 360.896 554.983 356.229 553.441 352.187C551.9 348.104 549.566 344.917 546.441 342.625C543.358 340.333 539.462 339.187 534.754 339.187C529.921 339.187 525.921 340.375 522.754 342.75C519.587 345.125 517.233 348.354 515.691 352.437C514.191 356.521 513.441 361.104 513.441 366.187C513.441 371.312 514.212 375.937 515.754 380.062C517.337 384.146 519.691 387.375 522.816 389.75C525.941 392.125 529.858 393.312 534.566 393.312ZM555.754 400V349.187H554.754V310H564.004V400H555.754ZM608.351 431.875C604.892 431.875 601.476 431.354 598.101 430.313C594.767 429.313 591.684 427.708 588.851 425.5C586.017 423.333 583.642 420.5 581.726 417L590.038 412.375C591.913 416.125 594.538 418.813 597.913 420.438C601.33 422.104 604.809 422.938 608.351 422.938C613.226 422.938 617.163 422.021 620.163 420.188C623.205 418.396 625.413 415.729 626.788 412.188C628.163 408.646 628.83 404.229 628.788 398.937V380.937H629.851V332.5H638.038V399.062C638.038 400.979 637.976 402.813 637.851 404.563C637.767 406.354 637.58 408.104 637.288 409.813C636.496 414.854 634.851 419 632.351 422.25C629.892 425.5 626.642 427.917 622.601 429.5C618.601 431.083 613.851 431.875 608.351 431.875ZM607.726 401.875C601.434 401.875 596.059 400.313 591.601 397.187C587.142 394.021 583.726 389.75 581.351 384.375C578.976 379 577.788 372.937 577.788 366.187C577.788 359.479 578.955 353.437 581.288 348.062C583.663 342.687 587.059 338.437 591.476 335.312C595.892 332.187 601.184 330.625 607.351 330.625C613.684 330.625 619.017 332.167 623.351 335.25C627.684 338.333 630.955 342.562 633.163 347.937C635.413 353.271 636.538 359.354 636.538 366.187C636.538 372.896 635.434 378.958 633.226 384.375C631.017 389.75 627.767 394.021 623.476 397.187C619.184 400.313 613.934 401.875 607.726 401.875ZM608.663 393.312C613.455 393.312 617.413 392.146 620.538 389.812C623.663 387.479 625.996 384.271 627.538 380.187C629.08 376.062 629.851 371.396 629.851 366.187C629.851 360.896 629.08 356.229 627.538 352.187C625.996 348.104 623.663 344.917 620.538 342.625C617.455 340.333 613.559 339.187 608.851 339.187C604.017 339.187 600.017 340.375 596.851 342.75C593.684 345.125 591.33 348.354 589.788 352.437C588.288 356.521 587.538 361.104 587.538 366.187C587.538 371.312 588.309 375.937 589.851 380.062C591.434 384.146 593.788 387.375 596.913 389.75C600.038 392.125 603.955 393.312 608.663 393.312ZM684.075 401.875C677.492 401.875 671.784 400.417 666.95 397.5C662.159 394.583 658.429 390.479 655.763 385.187C653.096 379.896 651.763 373.687 651.763 366.562C651.763 359.187 653.075 352.812 655.7 347.437C658.325 342.062 662.013 337.917 666.763 335C671.554 332.083 677.2 330.625 683.7 330.625C690.367 330.625 696.054 332.167 700.763 335.25C705.471 338.292 709.034 342.667 711.45 348.375C713.867 354.083 714.971 360.896 714.763 368.812H705.388V365.563C705.221 356.812 703.325 350.208 699.7 345.75C696.117 341.292 690.867 339.062 683.95 339.062C676.7 339.062 671.138 341.417 667.263 346.125C663.429 350.833 661.513 357.542 661.513 366.25C661.513 374.75 663.429 381.354 667.263 386.062C671.138 390.729 676.617 393.062 683.7 393.062C688.534 393.062 692.742 391.958 696.325 389.75C699.95 387.5 702.804 384.271 704.888 380.062L713.45 383.375C710.784 389.25 706.846 393.812 701.638 397.062C696.471 400.271 690.617 401.875 684.075 401.875ZM658.263 368.812V361.125H709.825V368.812H658.263Z" fill="#2563EB"/>
<path d="M777.383 400V365.563C777.383 361.812 777.029 358.375 776.32 355.25C775.612 352.083 774.466 349.333 772.883 347C771.341 344.625 769.32 342.792 766.82 341.5C764.362 340.208 761.362 339.562 757.82 339.562C754.57 339.562 751.695 340.125 749.195 341.25C746.737 342.375 744.654 344 742.945 346.125C741.279 348.208 740.008 350.75 739.133 353.75C738.258 356.75 737.82 360.167 737.82 364L731.32 362.562C731.32 355.646 732.529 349.833 734.945 345.125C737.362 340.417 740.695 336.854 744.945 334.437C749.195 332.021 754.07 330.813 759.57 330.813C763.612 330.813 767.133 331.437 770.133 332.687C773.174 333.937 775.737 335.625 777.82 337.75C779.945 339.875 781.654 342.312 782.945 345.062C784.237 347.771 785.174 350.667 785.758 353.75C786.341 356.792 786.633 359.833 786.633 362.875V400H777.383ZM728.57 400V310H736.883V360.812H737.82V400H728.57ZM831.039 401.875C824.331 401.875 818.602 400.354 813.852 397.312C809.102 394.271 805.456 390.062 802.914 384.687C800.372 379.312 799.102 373.146 799.102 366.187C799.102 359.104 800.393 352.896 802.977 347.562C805.56 342.229 809.227 338.083 813.977 335.125C818.768 332.125 824.456 330.625 831.039 330.625C837.789 330.625 843.539 332.146 848.289 335.187C853.081 338.187 856.727 342.375 859.227 347.75C861.768 353.083 863.039 359.229 863.039 366.187C863.039 373.271 861.768 379.5 859.227 384.875C856.685 390.208 853.018 394.375 848.227 397.375C843.435 400.375 837.706 401.875 831.039 401.875ZM831.039 393.062C838.539 393.062 844.122 390.583 847.789 385.625C851.456 380.625 853.289 374.146 853.289 366.187C853.289 358.021 851.435 351.521 847.727 346.687C844.06 341.854 838.497 339.437 831.039 339.437C825.997 339.437 821.831 340.583 818.539 342.875C815.289 345.125 812.852 348.271 811.227 352.312C809.643 356.312 808.852 360.937 808.852 366.187C808.852 374.312 810.727 380.833 814.477 385.75C818.227 390.625 823.747 393.062 831.039 393.062ZM903.639 431.875C900.18 431.875 896.764 431.354 893.389 430.313C890.055 429.313 886.972 427.708 884.139 425.5C881.305 423.333 878.93 420.5 877.014 417L885.326 412.375C887.201 416.125 889.826 418.813 893.201 420.438C896.618 422.104 900.097 422.938 903.639 422.938C908.514 422.938 912.451 422.021 915.451 420.188C918.493 418.396 920.701 415.729 922.076 412.188C923.451 408.646 924.118 404.229 924.076 398.937V380.937H925.139V332.5H933.326V399.062C933.326 400.979 933.264 402.813 933.139 404.563C933.055 406.354 932.868 408.104 932.576 409.813C931.785 414.854 930.139 419 927.639 422.25C925.18 425.5 921.93 427.917 917.889 429.5C913.889 431.083 909.139 431.875 903.639 431.875ZM903.014 401.875C896.722 401.875 891.347 400.313 886.889 397.187C882.43 394.021 879.014 389.75 876.639 384.375C874.264 379 873.076 372.937 873.076 366.187C873.076 359.479 874.243 353.437 876.576 348.062C878.951 342.687 882.347 338.437 886.764 335.312C891.18 332.187 896.472 330.625 902.639 330.625C908.972 330.625 914.305 332.167 918.639 335.25C922.972 338.333 926.243 342.562 928.451 347.937C930.701 353.271 931.826 359.354 931.826 366.187C931.826 372.896 930.722 378.958 928.514 384.375C926.305 389.75 923.055 394.021 918.764 397.187C914.472 400.313 909.222 401.875 903.014 401.875ZM903.951 393.312C908.743 393.312 912.701 392.146 915.826 389.812C918.951 387.479 921.285 384.271 922.826 380.187C924.368 376.062 925.139 371.396 925.139 366.187C925.139 360.896 924.368 356.229 922.826 352.187C921.285 348.104 918.951 344.917 915.826 342.625C912.743 340.333 908.847 339.187 904.139 339.187C899.305 339.187 895.305 340.375 892.139 342.75C888.972 345.125 886.618 348.354 885.076 352.437C883.576 356.521 882.826 361.104 882.826 366.187C882.826 371.312 883.597 375.937 885.139 380.062C886.722 384.146 889.076 387.375 892.201 389.75C895.326 392.125 899.243 393.312 903.951 393.312Z" fill="white"/>
<path d="M228.765 18.5691C226.973 16.5038 213.605 1.85179 213.325 0.913035C213.242 0.636741 213.429 0.479484 213.561 0.247857C213.929 0.0778769 214.181 0.00495292 214.594 0.000258072C216.276 -0.0187846 218.784 1.02088 220.439 1.50494C233.489 5.3215 246.247 11.7852 256.307 20.9889C254.801 17.2714 253.213 13.5892 251.543 9.94237C250.534 7.76247 249.361 5.58994 248.473 3.36414C248.244 2.78918 248.025 2.40727 248.213 1.81098C248.712 1.60484 248.88 1.57145 249.432 1.68409C251.145 2.03383 252.929 3.39266 254.428 4.26296C267.611 11.9218 277.657 25.4597 285.72 38.1301C285.172 34.9753 284.772 31.7736 284.17 28.632C283.694 26.1499 282.999 23.6816 282.672 21.1752C282.571 20.4014 282.417 19.4118 282.683 18.6594C282.796 18.3413 282.981 18.3433 283.261 18.208C283.589 18.2672 283.897 18.3314 284.191 18.5001C285.865 19.4611 287.338 21.8023 288.526 23.301C293.884 30.0633 297.36 35.6098 300.815 43.5164C302.244 46.7879 303.479 49.8619 304.343 53.337C304.879 50.954 306.025 48.8848 307.595 47.0253C308.765 45.4698 310.223 43.9021 312.276 43.6823C313.789 43.5208 315.269 44.3189 316.372 45.2855C320.876 49.2354 323.125 58.4421 323.822 64.2018C324.105 66.5374 324.097 68.9081 324.32 71.2524C326.982 64.9377 331.193 59.274 337.7 56.5852C342.525 54.591 347.509 54.8635 352.294 56.8542C358.366 59.3797 365.392 65.6164 368.854 71.1884C370.431 73.0505 371.617 75.4151 372.767 77.5664C373.151 78.2915 373.523 79.0231 373.881 79.7611C374.239 80.4994 374.583 81.2438 374.915 81.9944C375.246 82.745 375.564 83.5013 375.869 84.2633C376.173 85.0253 376.464 85.7926 376.741 86.5651C377.018 87.3374 377.281 88.1144 377.53 88.8963C377.78 89.6779 378.015 90.4637 378.236 91.2538C378.457 92.0442 378.664 92.8381 378.857 93.6355C379.049 94.4332 379.228 95.2339 379.392 96.0377C379.556 96.8419 379.706 97.6485 379.841 98.4576C379.976 99.267 380.097 100.079 380.204 100.892C380.31 101.706 380.402 102.521 380.479 103.338C380.556 104.155 380.619 104.973 380.667 105.792C380.715 106.611 380.748 107.431 380.766 108.251C380.785 109.071 380.789 109.892 380.779 110.712C380.768 111.533 380.742 112.353 380.702 113.172C380.662 113.992 380.608 114.81 380.539 115.628C379.892 123.234 378.095 127.931 373.201 133.71C378.579 133.951 383.804 133.824 389.121 132.896C395.527 131.777 409.255 124.933 414.322 130.773C416.296 133.049 416.663 136.426 416.396 139.326C416.324 140.031 416.219 140.732 416.08 141.427C415.941 142.122 415.768 142.809 415.563 143.487C415.358 144.166 415.121 144.833 414.851 145.489C414.581 146.145 414.281 146.786 413.95 147.413C411.915 151.308 408.848 154.719 406.103 158.125C403.088 161.866 400.216 165.676 397.005 169.263C393.076 173.651 388.563 177.741 384.01 181.463C368.45 194.185 349.95 203.776 332.07 212.825C332.44 220.597 332.794 228.37 332.648 236.153C332.613 238.453 332.543 240.752 332.436 243.05C332.329 245.348 332.186 247.644 332.006 249.937C331.826 252.231 331.611 254.521 331.358 256.807C331.107 259.094 330.818 261.376 330.494 263.653C330.17 265.931 329.809 268.202 329.413 270.469C329.017 272.734 328.585 274.993 328.117 277.246C327.649 279.498 327.146 281.743 326.607 283.979C326.069 286.216 325.495 288.443 324.885 290.661C323.876 294.287 322.891 297.939 321.601 301.477C318.376 310.326 313.939 319.166 309.015 327.184C306.52 331.248 303.489 334.812 300.702 338.657C301.862 341.606 302.45 344.787 303.263 347.848C304.572 352.771 306.068 357.748 307.738 362.562C309.861 368.78 312.125 374.946 314.531 381.059C315.967 384.607 317.949 388.073 319.068 391.719C322.93 391.633 325.876 391.993 328.757 394.792C329.523 395.537 330.398 396.607 330.276 397.753C330.193 398.54 329.617 399.172 328.961 399.559C326.24 401.168 316.384 401.647 313.065 401.615C311.81 401.713 310.566 401.78 309.307 401.805C306.955 401.898 304.551 401.679 302.202 401.539C298.883 401.673 296.529 399.189 294.235 397.073C287.117 390.504 281.119 382.583 275.672 374.613C273.708 371.739 271.933 368.589 269.85 365.82C261.812 371.005 253.461 374.912 244.682 378.651C247.504 384.52 253.263 394.749 258.493 398.426C262.933 398.538 267.604 399.833 270.786 403.105C271.347 403.682 271.93 404.445 271.863 405.301C271.794 406.181 271.144 406.987 270.43 407.462C265.77 410.562 245.518 411.102 239.861 409.752C231.605 407.781 224.714 401.894 218.38 396.534C215.743 394.303 213.071 392.105 210.712 389.574C207.088 390.11 203.544 391.105 199.92 391.629C193.788 392.516 187.601 393.361 181.429 393.901C177.096 394.28 172.752 394.428 168.414 394.727C152.779 395.801 138.06 396.405 122.403 394.484C120.145 396.839 117.906 399.262 115.478 401.443C125.001 403.088 134.722 403.944 144.337 404.887C157.967 406.223 171.854 407.552 185.566 407.12C182.636 403.61 179.808 402.176 175.704 400.383C175.295 400.205 174.505 400.002 174.427 399.567L174.625 399.82L174.045 399.589C174.435 399.246 174.739 399.264 175.242 399.302C178.717 399.566 183.995 401.722 186.2 404.43C186.884 405.27 187.506 406.21 188.075 407.131C189.624 407.266 195.389 407.77 196.321 407.034C196.349 405.951 195.178 404.614 194.436 403.827C193.962 403.324 193.449 402.857 192.956 402.371C191.777 401.549 190.577 400.717 189.309 400.037C187.576 399.107 185.278 398.361 183.837 397.042L183.925 396.8C184.037 396.788 184.148 396.774 184.259 396.765C186.997 396.563 191.205 398.585 193.206 400.339C195.81 401.783 197.476 404.16 199.533 406.226C200.28 406.144 200.948 406.088 201.641 405.783C202.068 405.293 202.082 405.284 202.12 404.636C200.942 401.883 196.388 399.562 193.766 398.425C192.61 397.923 190.714 397.404 189.832 396.52L189.927 396.247C190.249 396.147 190.284 396.122 190.659 396.082C193.12 395.821 199.198 398.562 201.175 400.112C202.656 401.274 204.661 403.38 204.794 405.323C204.842 406.025 204.607 406.609 204.106 407.109C202.982 408.228 201.021 408.079 199.559 408.155C199.152 408.633 198.767 409.128 198.376 409.619C190.669 410.358 182.832 410.16 175.104 409.998C157.218 409.622 139.576 408.124 121.849 405.798C115.885 405.011 109.927 404.176 103.977 403.29C101.179 402.855 98.0599 401.893 95.2522 401.89C90.5824 401.883 85.6199 406.746 80.8299 406.937C80.5293 406.77 80.3393 406.771 80.2428 406.411C79.7961 404.744 83.3484 400.159 84.2461 398.642C76.0402 399.744 67.7255 402.121 59.7579 404.352C57.2152 405.064 54.6664 405.957 52.0987 406.554C51.344 406.729 50.7047 406.753 49.9448 406.625C49.5025 406.279 49.4906 406.319 49.4117 405.769C50.6946 402.561 56.6882 397.573 59.3318 394.941C57.1016 395.918 40.9368 401.306 39.882 401.181C39.76 400.986 39.6626 400.854 39.5933 400.622C38.8408 398.115 41.9012 393.096 43.0508 390.813C41.5673 392.489 36.331 398.1 34.1867 398.124C33.6102 398.131 33.5431 397.977 33.1741 397.587C33.0271 397.047 32.9419 396.578 33.0354 396.018C33.2649 394.646 33.8774 393.286 34.2166 391.93C35.3942 387.218 36.2428 382.704 37.9716 378.13C36.5429 380.004 35.2218 381.951 34.0082 383.971C32.6822 386.213 31.6076 388.934 29.8227 390.844C29.6086 391.074 29.3835 390.987 29.0825 390.996C28.8144 390.83 28.5762 390.672 28.4086 390.394C27.8755 389.513 27.6894 388.14 27.4832 387.139C25.4061 377.035 27.5876 359.515 29.7977 349.257C27.6113 352.377 23.8032 360.83 22.5304 364.395C21.7031 366.712 21.0531 369.98 19.7647 372.037C19.4944 372.468 19.2918 372.456 18.8239 372.593C18.2324 372.291 17.9844 371.943 17.7605 371.313C16.9476 369.028 17.0953 366.101 16.9488 363.693C16.3681 354.148 16.6218 344.907 18.5497 335.498C19.0204 333.201 19.703 330.951 20.2584 328.673C21.0863 325.279 21.731 321.781 23.2074 318.595C21.2964 320.828 19.6027 323.168 18.0154 325.639C16.7636 327.587 9.97207 339.671 9.2713 340.223C9.00001 340.437 8.87137 340.348 8.55786 340.317C8.34172 340.123 8.17359 339.943 8.06697 339.666C7.23128 337.493 7.77238 333.162 7.94297 330.828C9.16855 314.067 14.0902 298.265 21.544 283.249C17.4672 287.452 13.8722 291.894 10.6307 296.775C8.82358 299.497 7.291 302.723 5.12084 305.161C4.59901 305.747 4.38204 305.883 3.59593 305.922C3.1239 305.5 2.97665 305.249 2.8516 304.62C2.35913 302.145 3.17292 298.604 3.58295 296.087C6.3537 279.081 13.7916 260.916 22.9928 246.366C19.1019 248.386 10.6781 257.921 7.3598 261.556C5.9459 263.105 4.55517 264.853 2.94309 266.192C2.4113 266.633 1.87038 267.145 1.12175 267.055C0.820533 267.018 0.37259 266.869 0.218187 266.586C-0.583755 265.115 1.04404 260.873 1.57259 259.222C4.71914 249.394 9.08724 239.683 14.5989 230.948C16.4854 227.957 18.4542 224.972 20.5202 222.103C21.7043 220.458 26.6004 215.028 26.8312 213.683L26.5469 213.912L26.3933 213.876C24.5197 215.547 22.1214 216.935 20.0903 218.447L11.7635 224.588C9.94556 225.938 8.11795 227.458 6.17082 228.607C5.35277 229.089 4.58813 229.487 3.62432 229.471C3.14422 229.118 3.04839 229.063 2.94782 228.435C2.68798 226.813 3.98469 224.253 4.5708 222.764C8.51333 212.748 17.8724 199.652 25.1134 191.589C28.0799 188.286 31.3795 185.307 34.3131 181.962C30.9626 183.715 10.1259 194.122 8.16995 194.079C7.54606 194.066 7.46532 193.902 7.06666 193.479C6.97614 193.104 6.93551 192.834 7.01997 192.45C7.81757 188.822 11.1435 185.124 13.4109 182.273C15.9039 179.139 18.344 175.915 21.0274 172.942C28.1909 165.007 36.6092 158.337 45.5272 152.503C40.6485 154.018 35.6685 154.848 30.7371 156.094C27.4108 156.934 24.1841 158.176 20.8506 158.982C20.0861 159.166 19.9046 159.043 19.2685 158.659C19.1237 158.359 18.9876 158.273 19.105 157.934C19.7129 156.173 21.8873 154.289 23.1749 152.938C33.5703 142.035 46.0766 134.577 59.191 127.433C53.2404 128.871 47.1287 129.72 41.1233 130.916C37.9545 131.547 34.5566 132.751 31.3729 133.04C30.695 133.102 30.265 132.994 29.7284 132.554C29.5538 131.975 29.5305 131.843 29.7723 131.251C30.487 129.501 33.8717 127.48 35.407 126.348C44.6229 119.551 54.3075 113.832 64.8643 109.366C67.9401 108.065 71.1506 107.155 74.2351 105.882C68.8738 105.405 50.7925 108.256 47.9387 107.182C47.4534 106.999 47.4433 106.949 47.2577 106.497C47.3472 106.182 47.3389 106.156 47.5201 105.826C50.2519 100.852 73.3405 92.3604 79.4403 90.3956C83.5213 89.081 87.744 88.2044 91.8 86.8494L92.0777 86.7547C86.9419 86.7257 81.7113 86.7441 76.5856 87.0925C73.5656 87.2979 70.4288 87.8924 67.4131 87.8367C66.4939 87.82 65.7247 87.695 65.0003 87.0978C64.9064 86.7766 64.8011 86.6726 64.9455 86.344C65.6098 84.8315 68.6996 83.6324 70.1287 82.9036C79.1871 78.2851 88.6474 75.025 98.2543 71.7702C100.933 70.8624 105.343 69.9392 107.623 68.9349L107.58 68.6545C105.292 67.2855 95.3356 67.6809 91.8325 66.8573C91.0269 66.6682 90.4907 66.4931 90.0361 65.7845C90.1006 65.5756 90.1226 65.4479 90.2748 65.2637C91.0993 64.2641 93.2229 63.606 94.4217 63.122C104.615 59.0081 115.943 56.1908 126.814 54.5954C129.426 54.2119 132.084 53.9083 134.718 53.7262C136.061 53.6336 137.388 53.7437 138.711 53.4642L138.881 53.1953C135.757 50.7412 121.441 47.6387 116.872 46.7173C115.712 46.483 113.814 46.1526 113.142 45.1469C113.298 44.5186 113.571 44.2579 114.123 43.9205C119.642 40.5446 148.215 37.9072 154.252 39.3578C154.71 39.4674 155.078 39.5333 155.549 39.5438C154.658 38.7676 153.202 38.3122 152.125 37.7641C150.13 36.7484 148.258 35.4935 146.242 34.4905C144.169 33.4589 136.219 30.4402 135.164 29.1454C134.92 28.8461 135.015 28.8018 135.061 28.4473C135.22 28.2981 135.269 28.2375 135.439 28.1235C138.973 25.7559 159.13 26.9072 163.868 27.4539C168.323 27.9677 172.724 28.8224 177.123 29.6719C174.297 27.3354 160.698 17.5618 159.953 15.2441C160.14 14.7376 160.188 14.6711 160.718 14.4355C162.364 13.7035 165.126 14.327 166.882 14.4721C180.404 15.5885 190.375 18.3895 203.003 23.0597C198.329 18.0838 193.148 13.4589 188.21 8.74365C187.152 7.73268 184.669 5.85553 184.053 4.71187C183.815 4.27003 183.931 4.07877 184.048 3.62223C184.109 3.58818 184.166 3.54605 184.231 3.52003C185.301 3.09039 187.359 3.70783 188.491 3.87211C202.634 5.92564 216.194 12.0132 228.765 18.5691Z" fill="#2563EB"/>
<path d="M307.595 47.0252C308.765 45.4698 310.223 43.9021 312.276 43.6823C313.789 43.5208 315.269 44.3189 316.372 45.2855C320.876 49.2353 323.125 58.4421 323.822 64.2018C324.105 66.5374 324.097 68.9081 324.32 71.2524C324.093 71.481 323.857 71.5082 323.532 71.549C322.789 71.6434 322.499 71.5666 321.914 71.1313C321.732 71.5784 321.832 71.7855 321.89 72.2401C322.16 74.3703 321.592 83.8855 320.803 85.7801C320.138 85.2725 319.78 84.7091 319.494 83.929C318.544 81.3358 317.888 78.5457 317.141 75.885C314.6 66.8318 312.584 57.5948 308.915 48.9076C309.353 48.2999 309.896 47.7492 310.398 47.1915L310.089 46.9941L309.354 47.4921L309.33 47.2907C310.035 46.4755 311.078 45.5953 312.016 45.0534C312.792 44.6059 313.783 45.3 314.63 45.5352L314.719 45.2469C314.596 44.97 314.449 44.5541 314.247 44.3316C313.868 43.9148 313.471 43.7402 312.906 43.7718C311.362 43.8578 309.442 45.5545 308.433 46.6304C308.15 46.9318 307.985 46.9155 307.595 47.0252Z" fill="#000F30"/>
<path d="M307.595 47.0252C308.765 45.4698 310.223 43.9021 312.276 43.6823C313.789 43.5208 315.269 44.3189 316.372 45.2855C320.876 49.2353 323.125 58.4421 323.822 64.2018C324.105 66.5374 324.097 68.9081 324.32 71.2524C324.093 71.481 323.857 71.5082 323.532 71.549C322.789 71.6434 322.499 71.5666 321.914 71.1313C321.518 69.3815 321.541 67.332 321.379 65.5374C320.854 59.7615 319.785 53.9912 316.604 49.0252C315.788 47.7505 314.768 46.4632 313.194 46.1718C312.014 45.9533 311.31 46.5417 310.398 47.1915L310.089 46.9941L309.354 47.4921L309.33 47.2907C310.035 46.4755 311.078 45.5953 312.016 45.0534C312.792 44.6059 313.783 45.3 314.63 45.5352L314.719 45.2469C314.596 44.97 314.449 44.5541 314.247 44.3316C313.868 43.9148 313.471 43.7402 312.906 43.7718C311.362 43.8578 309.442 45.5545 308.433 46.6304C308.15 46.9318 307.985 46.9155 307.595 47.0252Z" fill="#2563EB"/>
<path d="M310.1 399.718C310.858 400.111 311.082 400.568 311.481 401.306C311.973 401.633 312.497 401.593 313.065 401.615C311.81 401.713 310.565 401.78 309.307 401.805C309.535 401.089 309.8 400.407 310.1 399.718Z" fill="#5B3E34"/>
<path d="M220.298 4.32904C223.369 5.48564 226.469 6.61609 229.45 7.99523C237.828 11.8718 248.561 18.7093 255.275 25.0245C256.46 26.1393 257.653 27.26 258.748 28.4644C260.519 30.4125 262.52 33.5366 264.764 34.8818C265.175 35.128 264.995 35.0955 265.42 34.9871C265.955 33.1175 258.357 17.0477 256.801 13.9405C256.063 12.4684 254.016 9.47209 253.851 8.09984C256.264 9.05048 258.468 11.0252 260.394 12.7137C271.544 22.4856 280.817 35.9112 288.149 48.7246C289.323 50.7759 296.286 63.5138 297.331 64.312L297.564 64.1645C297.29 61.9931 296.233 59.9142 295.24 57.9954C294.111 55.8147 292.86 53.6257 292.038 51.3064C291.069 48.5697 290.532 45.5409 289.941 42.699C288.819 37.2942 287.87 31.846 286.556 26.4829C292.577 32.2343 297.933 45.2228 300.723 53.1058C301.809 56.175 303.866 64.2124 305.898 66.2373L306.157 66.1601C306.714 61.1848 305.94 56.7629 307.312 51.746C310.175 57.9085 311.486 65.1272 313.135 71.6987C314.164 75.7968 315.408 79.8554 316.581 83.9145C307.967 82.284 295.537 81.2244 286.792 81.5473C281.282 81.7505 276.024 82.7241 270.485 82.3898C270.454 82.3498 270.421 82.3104 270.39 82.27C267.81 78.9507 258.446 71.4863 254.74 69.4952C253.715 68.9445 252.726 68.4719 251.563 68.8124C251.181 69.2337 250.981 69.4144 250.963 70.0252C250.858 73.7372 258.586 80.3916 261.158 83.1015C259.041 83.5257 256.921 83.9496 254.852 84.5779C253.768 84.9087 252.698 85.2795 251.642 85.6902C250.586 86.1006 249.547 86.5498 248.524 87.0377C247.501 87.5253 246.497 88.0504 245.514 88.6129C244.53 89.1751 243.569 89.7731 242.629 90.407C239.857 92.3051 237.132 94.6578 234.906 97.1764C233.454 98.8191 232.176 100.72 230.533 102.177C229.252 103.312 227.557 104.189 226.112 105.118C222.032 107.738 215.138 111.945 212.873 116.212C205.943 114.151 197.942 110.853 191.243 108.033C187.515 106.464 183.674 104.55 179.787 103.438C177.994 102.926 175.992 102.608 174.136 102.919C171.311 103.392 169.083 105.403 167.548 107.717C164.763 111.912 162.125 121.779 163.123 126.621C164.153 127.717 163.389 129.366 164.705 130.94C165.06 131.364 165.288 131.59 165.252 132.179C165.213 132.792 165.081 133.523 164.746 134.042C167.162 141.82 174.325 147.946 181.298 151.612C184.226 153.152 187.582 154.071 190.399 155.733C186.636 159.238 182.566 162.394 178.939 166.052C165.626 179.477 152.174 199.397 151.662 218.92C151.626 220.295 151.805 221.912 152.815 222.946C153.473 223.619 154.44 224.027 155.381 224.003C157.044 223.961 158.616 222.761 159.647 221.545C162.01 218.758 162.887 210.628 164.06 206.587C167.117 196.059 174.884 184.569 182.517 176.758C187.012 172.158 192.125 168.083 197.275 164.244C199.46 162.615 201.634 160.833 203.931 159.372C203.082 174.826 201.917 190.581 204.598 205.937C201.982 202.475 199.633 198.84 197.553 195.031C195.977 192.156 191.465 181.66 189.865 180.154L189.523 180.192C188.946 182.763 192.419 190.954 193.853 193.269C194.037 193.566 194.242 193.819 194.467 194.085L194.531 193.787C194.498 193.916 194.483 194.049 194.463 194.18L194.748 193.998C195.055 195.028 195.404 196.027 195.442 197.109L195.586 197.26C198.177 200.634 200.152 204.187 203.109 207.343C204.752 209.096 206.683 210.452 208.463 212.052C207.224 207.613 205.731 196.499 206.348 192.127C205.966 190.674 206.107 188.974 206.045 187.472C205.764 180.674 206.023 173.95 206.036 167.155C206.041 164.341 205.446 160.934 205.951 158.196C208.169 156.486 210.623 155.026 212.97 153.498C218.045 150.194 223.231 146.958 228.219 143.532C233.164 156.462 241.921 167.042 254.757 172.734C266.144 177.784 279.117 178.806 290.832 174.244C301.492 170.092 308.335 163.205 312.926 152.735C317.578 142.124 317.7 132.562 316.833 121.23C319.396 119.361 322.395 118.438 325.46 117.722C329.161 126.896 336.029 134.433 345.206 138.35C351.695 141.118 358.54 141.107 365.072 138.474C366.538 137.883 367.95 137.174 369.354 136.453C374.637 138.045 380.383 137.096 385.788 136.892C383.461 140.671 381.606 144.747 382.647 149.287C383.526 153.12 386.227 156.49 389.533 158.549C392.486 160.388 396.006 161.468 399.479 160.889C395.97 164.984 392.348 169.123 388.375 172.78C383.045 177.686 377.135 181.832 371.129 185.849C367.083 188.555 363.05 191.284 358.856 193.76C345.593 201.594 331.693 208.158 318.142 215.444C298.86 225.811 278.331 238.837 262.596 254.105C257.078 259.46 252.115 265.305 247.427 271.39C233.875 288.977 225.672 308.631 223.581 330.832C223.248 329.905 222.939 328.961 222.56 328.053C222.449 328.728 222.399 328.915 221.801 329.284C221.557 329.435 221.394 329.508 221.144 329.629C226.042 348.676 241.613 385.875 256.154 399.694C259.772 400.295 265.934 400.73 268.281 403.978C268.606 404.427 268.745 404.875 268.895 405.403C268.81 405.683 268.842 405.829 268.564 405.986C267.775 406.428 266.261 406.271 265.349 406.282C262.012 401.946 261.082 402.058 256.098 400.598L255.818 400.784C256.116 401.185 255.929 401.055 256.297 401.198C259.338 402.38 262.035 403.958 263.606 406.921C261.496 407.242 259.39 407.445 257.265 407.63C255.971 405.02 252.972 402.604 250.223 401.736C249.203 401.414 247.113 401.023 246.142 401.478C246.484 402.057 249.333 402.599 250.108 402.972C252.146 403.952 253.959 405.849 255.198 407.699C239.79 409.02 237.126 407.559 225.511 397.768C211.888 386.284 199.778 373.502 188.566 359.668C185.829 356.29 183.07 352.904 180.451 349.435C178.001 346.189 175.668 341.995 172.599 339.354C174.339 344.09 177.384 348.653 180.185 352.837C183.631 357.985 187.19 363.16 191.068 367.991C196.107 374.267 201.619 380.122 207.057 386.046C190.593 389.508 173.862 390.781 157.082 391.547C153.458 391.712 149.82 392.065 146.196 392.118C141.292 392.191 136.36 391.895 131.463 391.632C129.437 391.524 127.35 391.552 125.34 391.331L136.696 376.999C139.002 379.575 141.245 382.553 144.28 384.296C143.234 376.682 142.55 369.228 143.73 361.574L143.431 361.533C143.442 361.414 143.476 361.295 143.464 361.175C143.412 360.65 143.055 359.997 142.63 359.732C142.27 360.162 142.401 359.98 142.094 360.449L141.881 360.778L141.425 360.8C139.535 363.292 140.78 374.72 141.249 378.365C138.823 375.175 130.662 361.961 127.899 360.904L127.72 361.218C128.707 365.827 132.197 370.405 134.799 374.255C132.383 376.947 130.427 380.131 128.226 383.007C124.113 388.38 119.402 393.837 114.511 398.508C115.425 391.146 117.51 381.411 116.209 374.166C114.252 378.22 113.889 385.555 113.226 390.139C106.284 392.288 100.304 395.402 93.8179 398.565C90.2414 400.308 86.321 401.831 83.2145 404.345C85.7857 401.387 88.0708 398.253 90.7386 395.355C93.656 392.186 97.0275 389.22 99.7233 385.896C94.6485 387.376 92.4384 391.774 88.0805 393.539C84.9205 394.819 78.9821 395.767 75.3851 396.755C67.9089 398.808 60.5239 401.241 53.1548 403.644C56.7097 400.687 60.3067 397.783 63.9459 394.93C67.4701 392.158 73.4111 388.392 75.9068 384.787L75.8028 384.543C74.0104 384.016 69.6464 387.272 68.1419 388.247C66.6641 389.205 65.1617 390.312 63.5317 390.994C61.6292 391.791 59.3752 391.89 57.3898 392.466C52.5387 393.875 47.7732 395.757 43.099 397.652C46.0862 389.663 52.3659 384.394 56.091 377.074C52.2584 379.113 40.4778 390.131 37.4402 393.729C38.0496 391.002 38.3647 388.214 38.9557 385.483C39.6906 382.089 40.9745 378.747 42.3487 375.562C43.2069 373.574 47.5749 366.251 47.5192 364.939L47.0795 364.786C42.9608 365.704 33.3807 380.998 30.1601 384.889L29.9811 385.101C30.0447 372.705 30.863 360.7 33.3333 348.529C33.8519 345.974 34.4298 343.387 35.1366 340.878C35.5337 339.469 36.1892 338.156 36.4481 336.71L36.2375 336.41L35.7887 336.47C34.2358 337.436 33.0683 339.468 32.0218 340.955C27.3577 347.579 23.622 354.365 20.1251 361.684C19.8724 348.889 21.2782 337.235 24.5978 324.859C25.6228 321.124 26.8031 317.438 28.1387 313.802C28.7565 312.153 31.3356 307.062 31.1693 305.613L30.7309 305.509C27.1321 307.249 16.8333 322.233 14.3792 326.146C13.2268 327.983 12.3943 330.053 11.1492 331.808C11.1044 331.871 11.0578 331.933 11.0121 331.996C11.773 314.809 17.8936 296.958 25.2713 281.537C26.8939 278.146 28.8218 274.915 30.5313 271.568C24.2266 275.768 17.9966 282.066 13.4371 288.133C11.0255 291.342 8.93635 294.804 6.38744 297.908C7.2018 294.399 7.74899 290.82 8.61943 287.327C10.6182 279.306 13.892 270.321 17.4109 262.864C19.0591 259.337 20.8314 255.875 22.7278 252.475C24.6238 249.076 26.6393 245.749 28.774 242.494C30.0732 240.544 33.5742 236.738 33.794 234.635L33.5439 234.394C31.6124 235.427 29.77 236.921 27.9987 238.224C19.2731 244.639 11.8372 252.11 4.55096 260.078C10.1362 243.208 17.4543 231.008 28.226 217.019C30.8538 213.606 33.4088 210.271 36.4056 207.161C37.4854 206.041 41.6063 202.855 41.9196 201.75L41.5936 201.459C40.1158 201.581 38.3362 202.805 37.0558 203.51C26.5486 209.298 17.5706 216.972 7.70406 223.692C10.171 214.179 24.0726 197.378 30.895 190.091C33.3767 187.441 36.062 184.939 38.7486 182.5C40.6015 180.818 42.4562 179.112 44.4105 177.547C46.5662 175.821 49.2405 174.15 51.0618 172.082C51.3839 171.717 51.5265 171.631 51.5063 171.128C51.4462 171.106 51.3883 171.077 51.326 171.063C48.828 170.527 16.7931 186.96 12.3051 189.348C19.5019 177.093 38.5283 159.628 51.1785 152.928C54.0661 151.398 57.1423 150.097 60.1997 148.946C61.9613 148.283 64.0753 147.728 65.6909 146.81C66.1016 146.576 66.152 146.581 66.2692 146.109C62.809 144.429 39.7736 150.292 34.6246 151.714C31.8143 152.49 29.0812 153.564 26.2419 154.224L25.9093 154.299C38.4537 142.895 52.1105 133.444 67.8567 127.026C70.2326 126.058 73.1364 124.538 75.6593 124.165C76.5031 124.04 77.6171 123.963 78.3034 123.449C78.2573 123.083 78.3411 123.086 78.0844 122.894C74.9182 120.517 44.1801 127.285 38.1993 128.482C48.8601 120.447 63.7809 112.7 76.3091 108.199C78.2244 107.511 80.1545 106.816 82.1145 106.265C85.2917 105.371 88.9225 104.861 91.7943 103.203C92.0452 103.059 91.9535 103.157 92.0378 102.834C90.6052 102.356 88.6698 102.51 87.1503 102.439C80.2831 102.115 73.1566 102.407 66.3131 103.013C62.5607 103.345 58.5442 104.167 54.8129 104.049C54.719 104.046 54.626 104.04 54.5325 104.036C56.9629 103.002 59.2905 101.719 61.724 100.681C72.9916 95.8706 84.7998 91.4293 96.6852 88.4246C102.465 86.9635 108.36 86.5033 114.149 85.1659C108.327 83.6197 80.3603 82.9418 74.8472 84.3169C74.7133 84.3502 74.5804 84.3879 74.447 84.4235L74.2895 84.2317C74.8862 83.6302 75.9994 83.5788 76.7721 83.1875C80.986 81.0515 85.4935 79.4759 89.9462 77.9029C100.484 74.1804 111.123 71.0059 122.204 69.432C123.448 69.2552 124.708 68.837 125.955 68.7444C126.467 68.7063 126.961 68.8239 127.48 68.7953L127.612 68.3864C127.577 68.3359 127.548 68.2802 127.507 68.235C125.811 66.3808 102.237 64.8003 97.9357 64.7371C100.644 63.7354 103.582 63.1075 106.373 62.3533C109.242 61.5474 112.129 60.8085 115.033 60.1366C117.937 59.4647 120.854 58.8604 123.786 58.3236C126.718 57.7869 129.66 57.3183 132.614 56.9178C135.568 56.5173 138.529 56.1855 141.498 55.9222C144.866 55.6357 148.271 56.0091 151.66 55.7507C144.015 49.8751 132.015 46.7866 122.689 44.5572C134.985 43.0877 145.34 41.4665 157.828 42.5064C159.589 42.6529 161.548 42.5033 163.267 42.8539C165.048 43.2176 166.773 43.9828 168.523 44.4822C169.385 44.7279 170.795 45.1947 171.615 44.7406L171.564 44.3198C169.222 41.2331 148.039 31.9583 142.927 30.0321C157.486 28.9479 175.537 31.6349 189.264 36.511C185.448 30.6977 172.163 22.1667 166.176 17.2405C170.155 18.0582 174.226 18.4149 178.216 19.1945C186.578 20.8281 195.259 23.0827 203.189 26.2069C205.705 27.1981 208.072 28.4556 210.531 29.5653C211.369 29.943 212.2 30.3871 213.103 30.0448C213.257 27.6597 197.352 13.1394 194.481 10.4061C193.652 9.61662 191.612 8.25819 191.31 7.27223C191.566 7.24309 191.822 7.21602 192.078 7.19101L192.147 7.33427L191.989 7.29974C194.608 8.16249 197.277 8.84917 199.888 9.74391C203.229 10.8895 206.377 12.2826 209.644 13.5989C214.302 15.4757 218.918 17.2501 223.41 19.515C227.038 21.3446 230.699 23.2281 234.204 25.2874C235.551 26.0779 236.809 27.5215 238.248 28.0568C238.625 28.1972 238.8 27.9848 239.137 27.8189L239.211 27.4227C235.65 20.1923 225.868 10.3193 220.298 4.32904Z" fill="#000F30"/>
<path d="M316.833 121.23C319.396 119.361 322.395 118.438 325.46 117.722C329.161 126.896 336.029 134.433 345.206 138.35C351.695 141.118 358.54 141.107 365.072 138.474C366.538 137.883 367.95 137.174 369.354 136.453C374.637 138.045 380.383 137.096 385.788 136.892C383.461 140.671 381.606 144.747 382.647 149.287C383.526 153.12 386.227 156.49 389.533 158.549C392.486 160.388 396.006 161.468 399.479 160.889C395.97 164.984 392.348 169.123 388.375 172.78C383.045 177.686 377.135 181.832 371.129 185.849C367.083 188.555 363.049 191.283 358.856 193.76C345.593 201.594 331.693 208.158 318.142 215.444C298.86 225.811 278.331 238.837 262.596 254.105C257.078 259.46 252.115 265.305 247.427 271.39C233.875 288.977 225.672 308.631 223.581 330.832C223.248 329.905 222.939 328.961 222.56 328.053C222.449 328.728 222.399 328.915 221.801 329.284C221.557 329.435 221.394 329.508 221.144 329.629C226.042 348.676 241.613 385.875 256.154 399.694C259.772 400.295 265.934 400.73 268.281 403.978C268.606 404.427 268.745 404.875 268.895 405.403C268.81 405.683 268.842 405.829 268.564 405.986C267.775 406.428 266.261 406.271 265.349 406.282C262.012 401.946 261.082 402.058 256.098 400.598L255.818 400.784C256.116 401.185 255.929 401.055 256.297 401.198C259.338 402.38 262.035 403.957 263.606 406.921C261.496 407.242 259.39 407.445 257.265 407.63C255.971 405.02 252.972 402.604 250.223 401.736C249.203 401.414 247.113 401.023 246.142 401.478C246.484 402.057 249.333 402.599 250.108 402.972C252.146 403.952 253.959 405.849 255.198 407.699C239.79 409.02 237.126 407.559 225.511 397.768C211.888 386.284 199.778 373.502 188.566 359.668C185.829 356.29 183.07 352.904 180.451 349.435C178.001 346.189 175.668 341.995 172.599 339.354C174.339 344.09 177.384 348.653 180.185 352.837C183.631 357.985 187.19 363.16 191.068 367.991C196.107 374.267 201.619 380.122 207.057 386.046C190.593 389.508 173.862 390.781 157.082 391.547C153.458 391.712 149.82 392.065 146.196 392.118C141.292 392.191 136.36 391.895 131.463 391.632C129.437 391.524 127.35 391.552 125.34 391.331L136.696 376.999C139.002 379.575 141.245 382.553 144.28 384.296C143.234 376.682 142.55 369.228 143.73 361.574C147.196 364.864 148.806 368.794 153.131 371.678C150.824 361.686 150.574 351.784 150.855 341.58C152.847 344.626 159.404 352.698 162.21 354.88C160.274 349.84 159.663 344.605 158.899 339.296C157.898 332.329 157.107 325.464 156.536 318.45C156.296 315.5 155.964 312.617 155.613 309.686C155.428 308.145 155.429 306.586 155.113 305.062C155.099 304.995 155.084 304.93 155.069 304.863C155.882 304.925 163.753 318.83 167.545 319.306C167.799 319.338 167.762 319.305 167.976 319.156C168.257 317.808 166.969 315.618 166.675 314.203C166.068 311.287 165.743 308.234 165.324 305.281C163.712 293.929 162.907 282.091 163.741 270.63C166.258 275.704 171.275 284.059 175.908 287.298C176.442 287.672 176.859 287.881 177.504 287.755L177.71 287.261C177.641 286.348 177.081 285.705 176.578 284.974C176.792 283.407 175.792 277.661 175.676 275.421C175.417 269.536 175.32 263.647 175.386 257.756C175.418 253.214 175.37 248.687 175.971 244.175C178.882 248.83 182.508 256.204 186.972 259.379C187.456 259.723 187.68 259.783 188.251 259.676C188.305 259.551 188.395 259.435 188.414 259.299C188.489 258.769 187.768 256.845 187.625 256.244C187.064 253.846 186.682 251.419 186.48 248.964C185.579 239.091 185.772 229.168 186.198 219.276C188.32 222.721 193.822 233.18 197.258 234.875C197.672 235.079 197.493 235.032 197.986 234.893C198.469 233.072 196.445 226.397 196.115 224.059L195.934 223.393C195.407 219.227 194.988 214.727 195.024 210.528C195.061 206.106 195.47 201.682 195.586 197.26C198.177 200.634 200.152 204.187 203.109 207.342C204.752 209.096 206.683 210.452 208.463 212.052C207.224 207.613 205.731 196.499 206.348 192.127C205.966 190.674 206.107 188.974 206.045 187.472C205.764 180.674 206.023 173.95 206.036 167.155C206.041 164.341 205.446 160.934 205.951 158.196C208.169 156.486 210.623 155.026 212.97 153.498C218.045 150.194 223.231 146.958 228.219 143.532C233.164 156.462 241.921 167.042 254.757 172.734C266.144 177.784 279.117 178.806 290.832 174.244C301.492 170.092 308.335 163.205 312.926 152.735C317.578 142.124 317.7 132.562 316.833 121.23Z" fill="white"/>
<path d="M221.144 329.629C220.111 325.716 218.64 321.178 218.488 317.144L218.695 317.052C219.807 318.364 222.129 326.153 222.56 328.053C222.449 328.728 222.399 328.915 221.801 329.284C221.557 329.435 221.394 329.508 221.144 329.629Z" fill="#2563EB"/>
<path d="M330.429 188.639C340.233 186.629 349.699 183.807 359.108 180.414C360.194 180.022 365.069 177.927 365.89 178.35C363.985 179.392 361.903 180.191 359.925 181.093C350.418 185.428 340.714 188.849 330.501 191.049C323.065 192.365 315.684 193.534 308.108 193.577C300.848 193.619 288.935 192.359 283.603 187.125C281.315 188.194 279.053 189.316 276.817 190.491C277 190.176 277.194 189.868 277.398 189.567C280.512 185.014 288.397 181.753 293.582 180.769C291.138 182.982 288.026 184.299 285.159 185.874C285.349 186.022 285.538 186.171 285.736 186.309C296.658 193.947 317.934 190.789 330.429 188.639Z" fill="#0A0E17"/>
<path d="M196.238 303.991L196.887 304.243C198.095 307.318 199.51 310.725 200.226 313.943C199.335 313.675 198.904 312.896 198.417 312.153C196.97 309.946 195.672 306.649 196.238 303.991Z" fill="#2563EB"/>
<path d="M225.841 259.231L227.01 259.77C227.072 261.873 226.84 263.939 226.493 266.009C226.054 263.749 225.889 261.53 225.841 259.231Z" fill="#2563EB"/>
<path d="M225.841 259.231C226.008 258.047 226.089 256.853 226.644 255.779L226.941 255.705C227.507 256.943 227.167 258.464 227.01 259.77L225.841 259.231Z" fill="#2563EB"/>
<path d="M184.053 215.1C182.698 212.044 176.397 198.446 177.03 195.746L177.392 195.745C178.751 196.981 179.396 199.072 180.119 200.72C184.388 210.448 188.239 218.58 194.405 227.363L193.675 224.327L193.457 222.966C194.282 223.113 195.108 223.255 195.934 223.393L196.115 224.059C196.445 226.397 198.469 233.073 197.986 234.893C197.493 235.033 197.672 235.079 197.258 234.875C193.822 233.18 188.32 222.721 186.198 219.276C185.772 229.168 185.579 239.091 186.48 248.964C186.682 251.419 187.064 253.846 187.625 256.244C187.768 256.845 188.489 258.769 188.414 259.299C188.395 259.435 188.305 259.551 188.251 259.677C187.68 259.783 187.456 259.723 186.972 259.379C182.508 256.204 178.882 248.83 175.971 244.175C175.371 248.687 175.418 253.214 175.386 257.756C175.32 263.647 175.417 269.536 175.676 275.421C175.792 277.661 176.792 283.407 176.578 284.974C177.081 285.705 177.641 286.349 177.71 287.261L177.504 287.755C176.859 287.881 176.442 287.672 175.908 287.298C171.275 284.059 166.258 275.704 163.741 270.63C162.907 282.091 163.712 293.929 165.324 305.281C165.743 308.234 166.068 311.287 166.675 314.203C166.969 315.618 168.257 317.808 167.976 319.156C167.762 319.305 167.8 319.338 167.545 319.306C163.753 318.83 155.882 304.925 155.069 304.863C155.084 304.93 155.099 304.995 155.113 305.062C155.429 306.586 155.428 308.145 155.613 309.686C155.964 312.617 156.296 315.501 156.536 318.45C157.107 325.464 157.898 332.329 158.9 339.296C159.663 344.605 160.274 349.84 162.21 354.88C159.404 352.698 152.847 344.626 150.855 341.58C150.574 351.784 150.824 361.686 153.131 371.678C148.806 368.794 147.196 364.864 143.73 361.575L143.431 361.533C143.442 361.414 143.476 361.295 143.464 361.175C143.412 360.65 143.055 359.997 142.63 359.732C142.271 360.162 142.401 359.98 142.094 360.449L141.881 360.778L141.425 360.8C141.715 360.404 141.941 360.014 142.165 359.578C141.803 358.078 138.953 354.392 138.087 352.875C136.844 350.699 135.78 348.338 134.823 346.019C134.45 345.116 134.122 344.405 134.513 343.465L134.791 343.429C135.934 344.367 136.941 346.594 137.789 347.894C141.389 353.411 144.807 359.667 149.218 364.577L149.419 364.799C149.25 361.266 148.598 357.717 148.365 354.171C148.054 349.45 148.469 344.075 149.107 339.392C144.157 332.026 135.427 317.012 133.381 308.765C137.081 312.297 141.794 321.997 144.645 326.815C147.222 331.17 150.054 335.127 152.996 339.237C154.596 341.472 156.092 343.821 157.891 345.903C156.156 339.106 154.881 332.261 154.318 325.259C153.815 319.017 153.475 312.789 152.744 306.564C152.465 304.186 152.268 301.677 151.687 299.352C150.921 296.288 148.959 293.389 147.569 290.57C146.241 287.879 145.002 284.826 144.044 281.985C143.696 280.951 143.12 279.387 143.634 278.359L143.943 278.281C145.602 279.712 148.913 287.786 150.192 290.225C152.411 294.457 154.722 298.762 157.205 302.845C159.478 306.582 162.034 310.2 164.409 313.881C162.972 307.274 161.716 300.491 161.288 293.739C160.969 288.694 161.081 283.551 161.068 278.495C161.059 274.711 162.305 270.331 161.587 266.642C161.014 263.702 158.996 260.523 157.878 257.721C157.168 255.944 155.112 249.338 155.755 247.813L156.046 247.846C156.8 248.909 157.154 250.225 157.665 251.417L160.936 259.095C164.347 267.169 168.285 274.583 173.749 281.466C173.706 278.362 173.085 275.206 172.907 272.092C172.605 266.789 172.777 261.393 172.795 256.08C172.811 251.599 174.109 244.608 173.492 240.473C173.14 238.118 171.79 235.804 170.854 233.63C169.183 229.748 167.709 225.586 167.169 221.37C167.028 220.269 166.556 217.974 167.263 217.063L167.661 217.063C168.003 218.231 168.112 219.439 168.48 220.615C172.059 232.05 177.867 242.21 184.288 252.228C183.259 242.12 182.598 232.393 183.342 222.215C183.515 219.851 183.576 217.423 184.053 215.1Z" fill="#2563EB"/>
<path d="M193.457 222.966C194.282 223.113 195.108 223.255 195.934 223.393L196.115 224.059C195.43 224.464 195.078 224.397 194.307 224.353C194.097 224.341 193.886 224.336 193.675 224.327L193.457 222.966Z" fill="#2563EB"/>
<path d="M194.467 194.085L194.531 193.787C194.498 193.916 194.483 194.049 194.463 194.18L194.748 193.998C195.055 195.028 195.404 196.027 195.442 197.109L195.586 197.26C195.47 201.682 195.061 206.106 195.024 210.528C194.988 214.727 195.407 219.228 195.934 223.393C195.108 223.255 194.282 223.113 193.457 222.966C192.024 216.862 192.767 199.995 194.467 194.085Z" fill="#2563EB"/>
<path d="M163.123 126.621C164.153 127.717 163.389 129.366 164.705 130.94C165.06 131.364 165.288 131.591 165.252 132.179C165.213 132.792 165.081 133.523 164.746 134.042C163.666 131.564 163.168 129.328 163.123 126.621Z" fill="#2563EB"/>
<path d="M141.581 141.003C142.201 140.921 142.836 140.914 143.461 140.933C144.262 140.957 144.675 141.074 145.217 141.662C145.244 141.89 145.28 142.052 145.223 142.289C143.939 147.577 104.07 170.747 97.6984 173.977C96.4198 174.64 95.1496 175.147 93.7907 175.624C94.5287 174.228 95.3927 172.955 96.3193 171.68C98.2513 169.02 100.271 166.527 102.653 164.25C110.976 156.29 130.305 142.786 141.581 141.003Z" fill="#2563EB"/>
<path d="M143.17 142.069L143.514 142.081L143.733 142.323C142.27 144.894 104.568 167.619 99.6131 170.445L99.2564 170.47C100.197 169.373 101.558 168.43 102.629 167.428C112.936 157.784 129.611 145.929 143.17 142.069Z" fill="#2563EB"/>
<path d="M141.643 107.722C143.517 107.501 145.42 107.538 147.231 108.118C147.938 108.344 148.265 108.558 148.605 109.214C148.577 109.582 148.507 109.749 148.29 110.061C145.172 114.56 106.325 126.641 99.4728 127.871C98.6973 128 97.9205 128.121 97.1424 128.233C96.049 128.385 94.0789 128.726 93.172 128.04C93.197 127.492 93.1018 127.696 93.426 127.302C94.0855 126.499 95.1302 125.85 95.9613 125.232C104.302 119.036 118.509 113.139 128.499 110.259C130.647 109.641 132.819 109.119 135.014 108.696C137.209 108.272 139.418 107.947 141.643 107.722Z" fill="#2563EB"/>
<path d="M143.263 109.001C144.093 109.01 144.917 108.889 145.746 108.881C146.182 108.877 146.935 108.785 147.256 109.096C146.67 109.765 145.819 110.128 145.012 110.467C140.525 112.353 135.792 113.767 131.196 115.373C125.512 117.36 119.9 119.499 114.165 121.347C110.679 122.447 107.174 123.485 103.65 124.46C102.042 124.906 100.442 125.295 98.8072 125.627C105.035 122.351 111.321 119.121 117.878 116.546C121.87 114.979 126 113.728 130.085 112.428C134.387 111.06 138.79 109.659 143.263 109.001Z" fill="#2563EB"/>
<path d="M138.378 221.652C139.109 221.649 139.669 221.599 140.314 222.004C140.583 222.362 140.753 222.644 140.809 223.088C141.045 224.948 140.216 227.304 139.702 229.078C136.333 240.707 129.335 254.717 122.143 264.37C121.615 264.802 121.542 264.988 120.841 264.982L120.497 264.563C119.651 260.658 121.237 254.523 122.339 250.722C124.711 242.548 131.081 225.663 138.378 221.652Z" fill="#2563EB"/>
<path d="M139.145 222.054C139.27 222.173 139.378 222.409 139.468 222.559C139.472 224.613 138.27 227.095 137.563 229.009C135.398 234.868 132.973 240.863 130.105 246.424C127.86 250.776 125.277 254.945 123.027 259.297L122.824 259.083C122.848 258.705 122.876 258.353 122.939 257.979C124.433 249.081 131.702 227.486 139.145 222.054Z" fill="#2563EB"/>
<path d="M145.757 173.379C146.561 173.343 147.56 173.326 148.212 173.874C148.67 174.258 148.806 174.727 148.825 175.303C149.04 181.662 126.988 204.47 121.907 209.476C121.395 209.879 121.17 210.151 120.516 210.244L120.137 209.887C119.943 208.803 120.262 207.574 120.561 206.525C123.523 196.126 136.422 178.636 145.757 173.379Z" fill="#2563EB"/>
<path d="M147.153 174.219L147.541 174.514C147.55 174.596 147.569 174.678 147.568 174.76C147.521 178.939 128.007 199.718 124.356 203.538L124.198 203.625L124.167 203.28C127.158 196.207 140.615 177.729 147.153 174.219Z" fill="#2563EB"/>
<path d="M193.437 59.5676C195.092 59.4824 196.95 59.8098 198.583 60.095C209.285 61.9641 219.774 66.5817 228.787 72.5547C230.102 73.4261 232.135 74.4651 232.994 75.7929C233.254 76.1939 233.244 76.2799 233.162 76.7222C232.502 77.1118 231.652 77.1504 230.9 77.2584C226.605 77.4444 217.658 74.312 213.408 72.7447C209.604 71.342 192.05 64.8662 191.131 61.6622C190.997 61.195 191.034 60.8571 191.332 60.4618C191.762 59.894 192.783 59.7391 193.437 59.5676Z" fill="#2563EB"/>
<path d="M193.232 61.3428C200.566 61.1111 216.393 67.6896 223.055 70.9689C225.985 72.4112 228.753 74.394 231.742 75.6541C232.277 75.8801 232.771 76.1276 233.275 76.4154C226.405 76.4839 199.605 65.1895 193.232 61.3428Z" fill="#2563EB"/>
<path d="M101.084 245.576C101.739 246.053 102.03 246.451 102.222 247.248C103.679 253.275 95.9942 274.196 93.0027 280.347C91.7452 282.932 90.0848 285.281 88.5285 287.688C88.3548 287.52 88.3043 287.494 88.1819 287.244C87.8734 286.617 87.8125 285.555 87.7177 284.842C86.6708 276.989 89.6812 266.311 92.4998 258.943C94.1079 254.739 96.7858 247.5 101.084 245.576Z" fill="#2563EB"/>
<path d="M100.77 246.882C100.858 246.985 100.922 247.225 100.973 247.355C100.242 254.696 93.3585 275.624 89.5649 282.072C89.4083 281.828 89.3719 281.667 89.3578 281.367C89.2464 279.048 90.0138 276.25 90.492 273.965C92.2076 265.766 95.2154 253.222 100.77 246.882Z" fill="#2563EB"/>
<path d="M76.2228 282.352C76.5993 282.513 77.0082 282.757 77.339 282.997C78.2683 283.672 78.5895 284.895 78.7773 285.966C79.127 287.962 78.9125 290.13 78.8427 292.149C78.5606 300.316 77.2232 316.043 72.5687 322.858C72.4989 322.885 72.4327 322.925 72.3594 322.939C71.8605 323.035 71.5464 322.897 71.1892 322.533C69.5451 320.855 69.2064 313.723 69.2485 311.33C69.3841 303.564 70.6289 287.731 76.2228 282.352Z" fill="#2563EB"/>
<path d="M76.1442 284.141C76.1815 284.207 76.2258 284.269 76.257 284.337C77.6097 287.347 75.3189 305.409 74.5901 309.423C73.9394 313.004 73.046 316.661 71.9315 320.125L71.5955 320.442C71.5555 320.345 71.502 320.253 71.4752 320.151C71.2646 319.363 71.4616 318.046 71.4274 317.192C71.1045 309.148 72.2137 290.93 76.1442 284.141Z" fill="#2563EB"/>
<path d="M231.354 31.5204C231.605 31.5327 231.837 31.5692 232.08 31.6306C240.446 33.7437 254.088 46.8902 258.605 54.4765C259.135 55.3655 259.601 56.1324 259.342 57.1758C258.733 57.5918 258.617 57.5238 257.906 57.4939C252.733 55.4221 231.123 38.0586 229.24 33.6823C229.024 33.179 228.991 32.7907 229.195 32.2751C229.84 31.7534 230.556 31.6793 231.354 31.5204Z" fill="#2563EB"/>
<path d="M231.101 33.4304C231.556 33.5401 232.005 33.7138 232.444 33.8792C239.335 36.4741 248.985 45.8392 254.12 51.1914C255.653 52.7889 257.687 54.6116 258.595 56.6282C258.135 56.5606 257.789 56.4781 257.414 56.1973C255.01 54.4005 252.865 52.0623 250.537 50.1379C245.94 46.3963 241.396 42.5918 236.905 38.7241C234.952 37.0182 232.867 35.3258 231.101 33.4304Z" fill="#2563EB"/>
<path d="M62.3681 217.728C63.1241 217.846 63.6835 217.876 64.2539 218.442C64.4838 218.914 64.6106 219.276 64.561 219.811C64.0881 224.933 48.3612 240.389 43.5917 244.475C43.0481 244.791 42.8647 244.945 42.2237 244.96L41.8582 244.602C41.4444 242.94 42.3066 240.81 42.9757 239.279C46.4942 231.232 54.0033 221.042 62.3681 217.728Z" fill="#2563EB"/>
<path d="M62.4081 218.956C62.8249 219.016 62.9653 219.074 63.3212 219.269L63.3633 219.719C61.7315 222.897 54.6906 229.975 52.0448 232.908C49.5565 235.665 47.199 238.562 44.6914 241.289C44.5729 241.392 44.4202 241.448 44.2825 241.524C47.74 233.123 55.0324 224.155 62.4081 218.956Z" fill="#2563EB"/>
<path d="M101.177 306.911C101.408 306.96 101.768 307.012 101.981 307.134C103.421 307.958 103.997 310.869 104.308 312.398C105.462 318.052 105.904 330.165 104.658 335.798C104.234 337.715 103.593 339.279 102.505 340.923C102.286 340.802 102.02 340.67 101.833 340.495C99.0511 337.888 97.6756 327.231 97.5861 323.619C97.4777 319.24 98.0718 310.183 101.177 306.911Z" fill="#2563EB"/>
<path d="M101.367 308.282C101.689 308.592 101.828 308.935 101.933 309.363C102.767 312.726 103.635 336.062 102.297 338.216C99.4456 330.785 98.8598 315.809 101.367 308.282Z" fill="#2563EB"/>
<path d="M87.977 159.513C88.2231 159.548 88.4403 159.644 88.6733 159.729C88.6698 160.61 86.6015 161.839 85.8384 162.408C81.7688 165.443 77.5307 168.351 73.5643 171.512C66.6176 177.048 60.6376 183.182 55.0323 190.051C59.5986 186.658 87.3403 165.189 90.6763 165.14L90.7382 165.485C90.1419 166.498 89.1604 167.211 88.2789 167.971C85.5251 170.673 82.1422 172.889 79.0226 175.146L68.9137 182.509C64.8472 185.426 60.771 188.829 56.493 191.398C55.497 191.997 54.2645 192.675 53.0943 192.756C52.5515 192.794 52.4936 192.704 52.0987 192.374C52.0544 191.987 52.0776 191.768 52.2145 191.394C52.7362 189.969 53.999 188.438 54.8695 187.201C61.5652 177.685 70.8057 170.156 80.5087 163.885C82.9355 162.317 85.3242 160.681 87.977 159.513Z" fill="#2563EB"/>
<path d="M123.477 277.539L124.093 277.627C124.502 277.91 124.812 278.161 125.097 278.575C128.853 284.051 127.296 295.533 126.038 301.73C125.515 304.307 124.805 308.064 122.485 309.612C119.146 305.93 119.012 299.405 119.223 294.738C119.452 289.651 119.533 281.142 123.477 277.539Z" fill="#2563EB"/>
<path d="M123.239 279.248C123.472 279.421 123.501 279.422 123.705 279.688C124.339 280.512 124.576 282.372 124.707 283.414C125.411 288.999 124.743 294.407 123.793 299.904C123.378 302.302 122.832 304.722 122.715 307.157L122.7 307.512C122.556 307.313 122.521 307.289 122.429 307.021C122.131 306.151 122.159 304.866 122.075 303.933C121.561 298.261 121.259 284.158 123.239 279.248Z" fill="#2563EB"/>
<path d="M99.1617 201.409L99.4473 201.739C98.7251 207.97 78.1398 235.232 72.4998 239.318C72.0628 239.635 71.814 239.696 71.2958 239.607C70.9189 239.085 70.9834 238.528 71.0396 237.914C71.2168 235.971 71.925 234.022 72.5643 232.184C76.1526 221.87 83.3243 211.004 91.7083 203.955C93.0672 202.911 94.6849 201.689 96.4795 201.757C96.9617 202.061 96.9503 202.073 97.1355 202.616C96.831 203.289 96.2505 202.693 95.6173 202.997C94.233 203.662 92.8851 205.078 91.7948 206.137C84.4603 213.262 76.7453 225.824 73.5524 235.463C76.2767 232.518 78.6873 229.29 81.1431 226.123C83.9543 222.497 86.7971 218.892 89.3894 215.104C90.8268 213.002 92.2717 210.894 93.6358 208.744C94.6972 207.072 95.6257 205.272 96.8555 203.717C97.5062 202.895 98.4154 202.162 99.1617 201.409Z" fill="#2563EB"/>
<path d="M160.1 73.248C162.667 73.1405 166.113 72.9835 168.495 74.101L168.473 74.363C165.782 75.0615 160.01 75.3103 156.977 75.6411C147.613 76.6634 133.788 79.0697 125.646 83.7154C129.952 83.2858 134.191 82.3328 138.469 81.7027C143.039 81.0301 147.65 80.6598 152.225 79.9757C155.123 79.5422 158.141 78.8235 161.04 78.5769C161.778 78.5142 162.126 78.4457 162.786 78.0815C163.184 78.2035 163.437 78.2759 163.861 78.2307C164.268 78.1868 164.266 78.2303 164.631 78.3966L164.588 78.7336C158.196 82.1906 141.167 83.7518 133.355 84.7627C130.222 85.1681 126.643 86.0224 123.517 85.8649C122.832 85.8302 122.295 85.7684 121.804 85.2423C121.857 84.7302 121.895 84.5986 122.255 84.1976C123.45 82.8628 125.555 81.9686 127.135 81.167C137.385 75.9667 148.73 73.979 160.1 73.248Z" fill="#2563EB"/>
<path d="M53.4979 291.205C53.7023 291.195 53.9064 291.18 54.1108 291.181C54.493 291.182 54.9076 291.243 55.1613 291.551C55.8019 292.325 55.6531 293.657 55.5535 294.593C54.9401 300.359 50.2189 318.379 45.7904 321.907C45.2218 321.848 45.0432 321.903 44.6922 321.398C43.5211 319.714 44.1055 314.77 44.4171 312.788C45.5026 305.885 47.5547 295.575 53.4979 291.205Z" fill="#2563EB"/>
<path d="M53.4338 292.426L53.7844 292.67C53.7993 297.418 48.4468 313.251 46.3209 317.824C46.3156 317.777 46.3051 317.73 46.3056 317.683C46.388 311.297 49.3116 296.983 53.4338 292.426Z" fill="#2563EB"/>
<path d="M195.819 90.6088C196.076 90.5768 196.325 90.5509 196.584 90.5404C201.895 90.324 216.98 92.6048 220.426 95.9548C220.954 96.4673 221.071 96.8806 221.084 97.5962C220.914 98.0201 220.746 98.2781 220.388 98.5571C218.142 100.307 215.372 99.7001 212.781 99.3855C210.296 99.049 188.965 94.1971 187.801 93.3375C187.768 93.04 187.665 92.9181 187.896 92.6807C189.366 91.1678 193.773 90.7251 195.819 90.6088Z" fill="#2563EB"/>
<path d="M191.997 92.79C198.233 92.1656 207.046 93.5372 213.22 94.8965C214.92 95.2708 219.354 95.9991 220.288 97.444L220.185 97.6257L219.679 97.6634C216.163 98.5265 212.34 96.6016 208.817 96.5625C208.621 96.8021 208.425 97.0241 208.214 97.2523L208.03 96.6248C205.74 94.8912 195.423 93.9058 191.997 92.79Z" fill="#2563EB"/>
<path d="M57.2425 332.127C57.7584 332.214 58.0897 332.337 58.4881 332.693C59.6166 333.701 59.546 336.047 59.4916 337.439C59.2064 344.706 56.5027 356.073 50.9676 361.147C50.8298 361.186 50.6328 361.251 50.4906 361.242C50.1445 361.219 49.9273 361.074 49.6916 360.839C48.6899 359.84 48.7448 357.821 48.8132 356.504C49.1713 349.606 52.0132 336.812 57.2425 332.127Z" fill="#2563EB"/>
<path d="M56.8325 333.669L57.2046 334.123C57.5407 342.257 55.1797 351.867 51.0675 358.94L50.8052 358.676C50.462 354.234 54.2868 337.77 56.8325 333.669Z" fill="#2563EB"/>
<path d="M56.0139 255.678C56.5711 255.651 56.8831 255.691 57.3995 255.905C57.8392 256.358 58.048 256.61 58.0932 257.258C58.342 260.811 49.0273 273.63 46.5921 276.647C44.9902 278.633 43.171 280.463 41.4155 282.313C40.9838 282.708 41.0092 282.737 40.4309 282.744C40.3914 282.687 40.3445 282.635 40.3124 282.573C39.4147 280.831 40.8183 276.229 41.3879 274.476C41.7626 273.323 42.4194 272.23 42.9455 271.136C45.8265 265.147 49.9685 258.825 56.0139 255.678Z" fill="#2563EB"/>
<path d="M56.4539 256.568L56.6202 256.894C56.3771 257.304 56.1305 257.712 55.926 258.143C53.0122 264.299 46.2608 273.453 42.1434 278.946C41.8766 278.624 41.9341 278.799 41.981 278.3C42.3211 274.685 48.8912 264.157 51.362 261.22C52.8625 259.437 54.6172 257.988 56.4539 256.568Z" fill="#2563EB"/>
<path d="M118.63 331.514C118.719 331.523 118.809 331.527 118.898 331.541C120.386 331.77 121.252 332.866 122.055 334.05C125.289 338.815 127.057 347.378 125.821 353.023C125.5 354.486 125.301 355.126 124.022 355.953L123.671 356.064C123.408 355.943 123.37 355.942 123.114 355.724C120.804 353.747 117.805 344.246 117.411 341.193C116.989 337.918 116.522 334.298 118.63 331.514Z" fill="#2563EB"/>
<path d="M119.074 332.775C119.29 332.915 119.305 332.914 119.515 333.101C121.511 334.888 123.327 343.279 123.726 346.095C124.1 348.73 124.202 351.415 124.321 354.072L124.064 354.337C121.862 350.703 120.128 344.596 119.434 340.396C119.133 338.576 119.099 336.665 118.753 334.872C118.586 334.006 118.773 333.588 119.074 332.775Z" fill="#2563EB"/>
<path d="M269.79 48.3464C270.082 48.3377 270.373 48.3482 270.663 48.378C273.326 48.629 276.33 52.9768 277.897 55.0166C279.778 57.4654 286.164 67.1877 285.761 70.3438L285.462 70.5408C282.284 66.1698 275.82 53.5419 271.392 50.9979C271.264 50.9247 271.133 50.8597 271.003 50.7904C270.961 50.9633 270.909 51.112 270.92 51.2915C270.964 51.9711 271.546 52.8882 271.857 53.4906C274.749 59.1104 278.917 63.309 283.011 67.9661C283.559 68.5887 284.341 69.3596 284.286 70.2143C282.703 70.1977 280.221 68.0187 279.061 66.9767C276.633 64.796 268.12 53.6832 268.349 50.2582C268.406 49.4021 269.194 48.855 269.79 48.3464Z" fill="#2563EB"/>
<path d="M83.5283 338.045C83.7911 338.123 84.0109 338.259 84.2514 338.389C86.9647 343.045 88.163 353.085 87.1815 358.426C86.9046 359.932 86.6532 360.91 85.3711 361.805C83.3962 360.163 82.4748 357.293 81.9684 354.842C80.9606 349.962 80.6635 342.409 83.5283 338.045Z" fill="#2563EB"/>
<path d="M83.5445 340.726L83.8293 340.985C85.4931 345.422 85.9095 355.19 85.508 360.062C82.8846 355.729 83.3352 345.813 83.5445 340.726Z" fill="#2563EB"/>
<path d="M75.3654 358.516C75.7752 358.566 76.2486 358.662 76.5838 358.92C78.5728 360.446 78.5706 367.757 78.5473 370.071C78.5192 372.843 78.2349 378.827 76.1648 380.843C75.9397 380.655 75.7177 380.474 75.5316 380.246C74.9656 379.551 74.6589 378.326 74.3856 377.48C72.9859 373.149 72.0847 368.289 72.8394 363.746C73.1632 361.796 73.6831 359.715 75.3654 358.516Z" fill="#2563EB"/>
<path d="M75.4896 360.502C75.5527 360.575 75.6238 360.642 75.6782 360.722C76.7708 362.326 76.1749 373.22 75.9639 375.526C75.8594 375.373 75.7528 375.22 75.6616 375.059C74.2768 372.618 74.6791 363.266 75.4896 360.502Z" fill="#2563EB"/>
<path d="M98.1955 359.304C98.5395 359.435 98.9041 359.572 99.2139 359.774C100.822 360.823 101.502 364.248 101.79 366.065C102.357 369.63 103.125 374.544 100.859 377.675C100.607 377.547 100.463 377.483 100.239 377.34C98.4329 376.182 97.6172 372.953 97.2109 370.938C96.4944 367.385 96.085 362.454 98.1955 359.304Z" fill="#2563EB"/>
<path d="M99.4789 363.359C99.6513 364.579 99.8755 365.818 99.9716 367.045C100.335 370.233 100.632 373.427 100.86 376.627C99.1467 373.585 98.7338 370.42 98.3657 367.002C98.2705 366.264 98.2464 365.504 98.1898 364.761C98.8892 364.357 99.1612 364.123 99.4789 363.359Z" fill="#2563EB"/>
<path d="M98.1898 364.761C98.1349 363.251 98.3438 361.781 98.5298 360.286L99.4789 363.359C99.1612 364.123 98.8892 364.357 98.1898 364.761Z" fill="#2563EB"/>
<path d="M324.799 106.732C322.751 101.118 322.669 92.1607 323.307 86.2917C324.31 77.0529 326.567 67.3552 334.245 61.2857C337.655 58.5899 342.714 57.2122 347.027 57.7808C356.001 58.9633 362.737 66.7787 367.895 73.5077C374.362 84.5577 378.552 96.1544 378.685 109.071C378.721 112.632 378.528 116.266 377.63 119.727C375.99 126.04 372.837 131.306 367.113 134.62C361.527 137.853 355.175 139.025 348.903 137.321C339.823 134.854 332.767 127.091 328.269 119.178C327.571 117.963 326.934 116.718 326.358 115.442C322.968 115.592 318.722 116.609 316.334 119.196C315.91 119.654 315.506 120.143 315.356 120.764C314.68 123.556 315.345 127.365 315.401 130.241C315.432 132.919 315.26 135.584 314.884 138.235C311.966 158.42 298.607 173.28 277.714 174.644C265.058 175.47 252.598 170.477 243.216 162.131C233.424 153.42 228.064 140.361 227.4 127.382C226.868 116.978 229.691 106.424 236.796 98.6155C237.033 98.3575 237.272 98.1024 237.515 97.8503C237.758 97.5981 238.004 97.349 238.253 97.103C238.502 96.857 238.754 96.6141 239.009 96.3742C239.264 96.1347 239.522 95.8982 239.783 95.6647C240.044 95.4316 240.308 95.2017 240.575 94.975C240.842 94.7483 241.111 94.525 241.384 94.305C241.656 94.085 241.931 93.8686 242.209 93.6556C242.487 93.4424 242.767 93.2326 243.05 93.0264C243.333 92.8205 243.618 92.6181 243.906 92.4191C244.194 92.2199 244.485 92.0245 244.777 91.8329C245.07 91.6411 245.366 91.453 245.663 91.2687C245.961 91.0844 246.261 90.9038 246.563 90.7268C246.865 90.5498 247.169 90.3767 247.475 90.2073C247.782 90.0382 248.09 89.8728 248.401 89.7111C248.711 89.5496 249.024 89.3919 249.338 89.2381C249.653 89.0842 249.969 88.9343 250.287 88.7883C250.605 88.6424 250.925 88.5005 251.247 88.3627C251.569 88.2246 251.892 88.0907 252.217 87.9608C252.542 87.8309 252.869 87.7051 253.197 87.5835C253.525 87.4618 253.855 87.3442 254.186 87.2307C254.517 87.1172 254.85 87.0078 255.184 86.9025C255.518 86.7972 255.853 86.6961 256.189 86.5993C256.525 86.5025 256.863 86.4099 257.202 86.3215C257.54 86.2332 257.88 86.149 258.221 86.0688C258.562 85.989 258.904 85.9133 259.246 85.842C259.589 85.7706 259.932 85.7035 260.277 85.6406C260.621 85.5777 260.966 85.519 261.312 85.4646C261.658 85.4105 262.004 85.3606 262.352 85.315C262.698 85.2694 263.046 85.2281 263.394 85.1913C263.742 85.1544 264.091 85.1218 264.44 85.0934C264.789 85.065 265.138 85.0412 265.487 85.0219C265.837 85.0023 266.187 84.9871 266.537 84.9763C279.557 84.4541 290.879 88.45 300.427 97.3711C304.657 101.324 308.074 106.065 310.984 111.05C311.941 112.689 312.798 115.093 314.04 116.46L314.308 116.307C314.473 114.65 314.134 113.077 313.37 111.593C316.422 109.077 319.849 108.721 323.649 108.475C324.416 108.858 325.236 109.414 326.034 109.696C326.554 109.88 326.887 109.876 327.355 109.611C327.017 108.261 325.853 107.51 324.799 106.732Z" fill="#000F30"/>
<path d="M265.587 91.6711C274.823 90.6733 286.362 94.556 293.814 99.9792C301.891 105.857 308.053 115.45 309.563 125.378C311.121 135.626 308.362 146.776 302.218 155.121C296.58 162.779 288.924 166.696 279.681 168.093L279.381 168.124C268.723 169.195 258.706 165.997 250.461 159.198C241.65 151.932 235.978 140.533 234.968 129.204C234.121 119.694 236.009 110.35 242.291 102.926C248.341 95.7754 256.379 92.4666 265.587 91.6711Z" fill="#2563EB"/>
<path d="M266.335 94.3024C268.034 94.0225 270.029 94.1655 271.742 94.3121C279.267 94.9575 286.286 97.6305 292.453 102.002C300.18 107.48 305.795 116.359 307.358 125.688C307.407 125.982 307.453 126.277 307.495 126.573C307.536 126.869 307.575 127.165 307.609 127.461C307.644 127.758 307.674 128.054 307.701 128.352C307.728 128.649 307.752 128.947 307.771 129.244C307.791 129.542 307.807 129.84 307.819 130.139C307.832 130.437 307.84 130.735 307.845 131.034C307.849 131.332 307.85 131.631 307.848 131.929C307.845 132.228 307.839 132.526 307.829 132.824C307.819 133.123 307.805 133.421 307.787 133.719C307.77 134.017 307.749 134.314 307.724 134.612C307.699 134.909 307.67 135.206 307.638 135.503C307.605 135.8 307.569 136.096 307.53 136.392C307.49 136.688 307.446 136.983 307.399 137.278C307.352 137.573 307.301 137.867 307.247 138.16C307.193 138.454 307.135 138.747 307.073 139.039C307.011 139.331 306.946 139.622 306.877 139.912C306.808 140.203 306.735 140.492 306.659 140.781C306.583 141.069 306.503 141.357 306.42 141.644C306.337 141.93 306.25 142.216 306.159 142.501C306.069 142.785 305.975 143.068 305.877 143.35C305.78 143.632 305.678 143.913 305.574 144.193C305.47 144.473 305.362 144.751 305.25 145.027C305.139 145.304 305.024 145.58 304.905 145.854C304.787 146.128 304.665 146.401 304.54 146.671C304.415 146.943 304.287 147.212 304.155 147.48C304.023 147.748 303.888 148.014 303.749 148.278C303.611 148.543 303.469 148.805 303.324 149.066C303.179 149.327 303.031 149.586 302.88 149.843C302.728 150.1 302.573 150.356 302.415 150.609C302.258 150.862 302.097 151.114 301.933 151.363C301.769 151.612 301.601 151.86 301.431 152.105C301.261 152.35 301.088 152.593 300.911 152.834C294.89 161.147 288.87 164.139 279.012 165.719C269.787 166.446 260.769 164.409 253.45 158.525C253.167 158.296 252.887 158.064 252.61 157.829C252.333 157.594 252.059 157.355 251.788 157.112C251.516 156.87 251.248 156.625 250.983 156.376C250.718 156.127 250.456 155.875 250.197 155.62C249.938 155.365 249.682 155.106 249.429 154.845C249.176 154.583 248.927 154.319 248.681 154.051C248.435 153.784 248.192 153.513 247.952 153.239C247.713 152.966 247.477 152.69 247.244 152.41C247.011 152.131 246.782 151.849 246.556 151.564C246.33 151.279 246.108 150.991 245.889 150.701C245.67 150.41 245.455 150.117 245.243 149.821C245.032 149.526 244.824 149.227 244.62 148.927C244.415 148.626 244.215 148.322 244.018 148.017C243.821 147.711 243.628 147.403 243.439 147.092C243.25 146.782 243.064 146.469 242.883 146.154C242.701 145.839 242.524 145.522 242.35 145.202C242.176 144.883 242.006 144.562 241.84 144.238C241.674 143.915 241.512 143.589 241.354 143.261C241.197 142.934 241.043 142.604 240.893 142.273C240.743 141.942 240.597 141.609 240.456 141.274C240.314 140.939 240.177 140.603 240.043 140.264C239.91 139.926 239.78 139.586 239.655 139.245C239.53 138.903 239.409 138.56 239.293 138.216C239.176 137.872 239.064 137.526 238.955 137.179C238.847 136.831 238.743 136.483 238.644 136.134C238.544 135.784 238.449 135.433 238.358 135.081C238.267 134.729 238.18 134.376 238.098 134.021C238.016 133.667 237.938 133.312 237.864 132.956C237.791 132.6 237.721 132.243 237.656 131.885C237.591 131.528 237.531 131.169 237.475 130.809C237.419 130.45 237.367 130.09 237.32 129.73C237.273 129.369 237.23 129.008 237.192 128.647C236.338 120.151 238.296 111.567 243.766 104.897C249.582 97.8064 257.454 95.169 266.335 94.3024Z" fill="white"/>
<path d="M272.348 119.036C275.512 118.854 278.318 119.164 281.107 120.741C286.424 123.748 289.954 129.949 291.494 135.691C292.48 139.369 292.834 143.02 290.762 146.449C289.395 148.712 287.362 150.05 284.819 150.63C282.1 150.64 279.794 150.263 277.359 148.997C271.774 146.092 267.143 140.015 265.289 134.059C264.229 130.655 263.874 126.872 265.665 123.626C267.125 120.981 269.548 119.78 272.348 119.036Z" fill="#000F30"/>
<path d="M270.704 123.018C271.378 123.122 272.044 123.242 272.671 123.522C274.081 124.153 275.165 125.524 275.697 126.947C276.34 128.667 276.34 130.676 275.497 132.33C274.649 133.993 273.452 134.712 271.721 135.238C270.89 134.986 270.08 134.675 269.325 134.237C267.835 133.372 266.652 131.754 266.213 130.096C265.821 128.622 265.912 126.951 266.699 125.617C267.602 124.087 269.045 123.415 270.704 123.018Z" fill="#FBF9F3"/>
<path d="M256.281 121.87C256.179 120.422 256.576 119.071 257.051 117.716C257.128 117.492 257.211 117.271 257.299 117.052C257.387 116.832 257.481 116.615 257.58 116.401C257.678 116.186 257.782 115.974 257.892 115.764C258.001 115.555 258.115 115.348 258.235 115.144C258.354 114.94 258.478 114.739 258.608 114.541C258.737 114.343 258.871 114.149 259.01 113.958C259.149 113.766 259.292 113.578 259.44 113.394C259.588 113.21 259.741 113.029 259.898 112.853C260.055 112.676 260.216 112.503 260.382 112.335C260.547 112.166 260.716 112.001 260.89 111.841C261.064 111.68 261.241 111.524 261.422 111.372C261.603 111.221 261.788 111.074 261.976 110.931C262.165 110.788 262.357 110.65 262.552 110.517C262.747 110.384 262.946 110.255 263.147 110.132C263.349 110.009 263.553 109.89 263.76 109.777C263.968 109.663 264.178 109.555 264.391 109.452C268.251 107.609 271.929 107.831 275.879 109.265L275.611 110.968C271.485 110.114 267.362 110.287 263.742 112.665C260.689 114.67 258.923 117.662 258.07 121.169C257.383 121.334 256.9 121.531 256.281 121.87Z" fill="#000F30"/>
<path d="M256.281 121.87C256.9 121.531 257.383 121.334 258.07 121.169C257.492 123.887 257.912 126.737 257.54 129.488C256.863 127.387 255.745 124.066 256.281 121.87Z" fill="#000F30"/>
<path d="M275.879 109.264C277.255 109.907 278.738 110.343 279.441 111.781L279.445 112.294C278.338 112.509 276.774 111.259 275.611 110.968L275.879 109.264Z" fill="#000F30"/>
<path d="M345.152 64.2256C348.739 63.9641 352.94 65.9223 355.708 68.0714C364.772 75.1084 371.285 92.632 372.612 103.804C373.455 110.899 372.76 120.42 368.09 126.218C365.137 129.885 361.551 131.208 357.005 131.684C351.618 131.538 346.601 130.519 342.25 127.119C334.189 120.821 330.417 109.773 329.226 99.9165C328.101 90.5944 329.397 77.4054 335.378 69.8625C337.933 66.6406 341.049 64.7043 345.152 64.2256Z" fill="#000F30"/>
<path d="M341.292 67.6049C344.163 66.4452 346.782 66.1991 349.725 67.4193C357.299 70.5592 363.906 82.5429 366.775 89.8774C370.499 99.3952 372.48 111.781 368.189 121.419C366.81 124.516 364.619 127.231 361.365 128.474C359.575 129.158 355.558 129.874 353.797 129.033C353.485 128.885 353.322 128.729 353.144 128.427C350.993 124.79 348.981 119.83 347.089 115.92C343.289 108.067 339.312 100.238 335.817 92.2485C334.993 90.364 334.343 88.4206 333.752 86.4523C332.246 81.4407 332.536 78.9805 335.009 74.3787C336.388 71.8114 338.293 69.5754 340.718 67.9423L341.292 67.6049Z" fill="white"/>
<path d="M330.72 95.1185C332.051 95.4546 333.3 95.7793 334.682 95.8025C335.861 98.0653 336.721 100.601 338.213 102.681C336.761 102.839 335.753 103.043 334.78 104.208C333.633 105.582 333.477 107.54 333.586 109.252C333.559 109.72 333.54 110.189 333.527 110.659L333.33 110.684C331.673 107.838 331.02 98.5225 330.72 95.1185Z" fill="#FBF9F3"/>
<path d="M337.303 105.405C338.986 106.077 339.889 106.509 340.684 108.248C341.22 109.42 341.465 110.968 340.967 112.195C340.654 112.966 339.96 113.613 339.173 113.886C338.407 114.152 337.644 113.997 336.857 113.897C335.619 112.27 335.241 110.945 334.815 108.983C335.39 107.29 335.96 106.527 337.303 105.405Z" fill="#FBF9F3"/>
<path d="M330.868 89.9072C332.035 90.3254 332.813 91.7571 333.461 92.7487C332.674 92.6495 331.698 92.6443 331.02 92.2103C330.631 91.5557 330.816 90.647 330.868 89.9072Z" fill="#FBF9F3"/>
<path d="M340.718 67.9424C340.409 67.5913 340.251 67.2969 340.072 66.8661C340.25 66.3215 340.236 66.2878 340.705 65.9705L341.212 66.1083C341.517 66.6941 341.383 66.9626 341.292 67.6049L340.718 67.9424Z" fill="#5B3E34"/>
<path d="M328.104 214.825L328.416 214.911C328.959 216.629 328.57 223.765 328.566 225.939C328.519 251.473 324.506 282.874 314.42 306.499C314.074 307.315 313.719 308.128 313.355 308.937C312.992 309.746 312.619 310.55 312.239 311.351C311.858 312.152 311.468 312.949 311.07 313.741C310.672 314.533 310.265 315.321 309.85 316.105C309.435 316.888 309.011 317.667 308.58 318.442C308.148 319.216 307.707 319.986 307.258 320.751C306.81 321.515 306.353 322.275 305.888 323.031C305.423 323.786 304.95 324.535 304.469 325.28C303.988 326.025 303.499 326.765 303.002 327.499C302.505 328.233 302 328.962 301.486 329.685C300.974 330.409 300.453 331.127 299.925 331.839C299.396 332.551 298.86 333.257 298.317 333.958C297.773 334.658 297.222 335.353 296.663 336.041C296.105 336.73 295.539 337.413 294.965 338.089C294.392 338.766 293.811 339.436 293.224 340.1C292.636 340.763 292.041 341.421 291.439 342.072C290.837 342.723 290.228 343.368 289.612 344.006C288.996 344.643 288.373 345.274 287.744 345.899C287.114 346.523 286.478 347.141 285.835 347.752C285.192 348.363 284.543 348.966 283.887 349.563C283.231 350.16 282.568 350.749 281.9 351.332C281.231 351.914 280.556 352.489 279.875 353.057C279.194 353.625 278.507 354.185 277.814 354.738C277.121 355.291 276.422 355.837 275.717 356.375C275.012 356.913 274.301 357.443 273.585 357.965C272.868 358.488 272.146 359.003 271.419 359.51C270.691 360.017 269.958 360.516 269.22 361.007C268.482 361.498 267.738 361.981 266.989 362.456C266.241 362.931 265.487 363.398 264.728 363.857C263.97 364.316 263.206 364.767 262.437 365.209C261.669 365.651 260.896 366.085 260.118 366.511C259.34 366.937 258.557 367.354 257.77 367.762C252.826 370.363 247.563 372.352 242.388 374.435C240.797 371.005 238.923 367.677 237.283 364.259C234.947 359.517 227.317 342.352 226.914 337.944C226.362 331.913 229.066 319.194 230.664 313.266C239.782 279.428 266.639 252.596 295.216 233.935C305.847 226.993 317.125 221.168 328.104 214.825Z" fill="white"/>
<path d="M279.734 283.275C279.819 283.565 279.823 283.745 279.724 284.045C278.314 288.358 273.248 290.701 269.479 292.484C269.476 292.422 269.464 292.359 269.471 292.297C269.561 291.556 278.512 284.457 279.734 283.275Z" fill="#2563EB"/>
<path d="M298.598 297.277C298.63 297.306 298.668 297.33 298.695 297.364C299.05 297.814 299.013 298.079 298.984 298.635C298.796 302.251 295.556 306.345 292.97 308.676L292.758 308.376C292.64 307.44 297.727 298.778 298.598 297.277Z" fill="#2563EB"/>
<path d="M269.039 328.695L269.214 328.884C269.241 329.678 268.83 330.429 268.471 331.116C268.366 331.321 268.257 331.523 268.142 331.723C268.027 331.922 267.907 332.119 267.781 332.312C267.656 332.505 267.527 332.695 267.393 332.882C267.258 333.069 267.119 333.252 266.975 333.432C266.831 333.612 266.683 333.788 266.53 333.96C266.378 334.132 266.221 334.3 266.06 334.465C265.898 334.629 265.733 334.789 265.564 334.945C265.394 335.101 265.221 335.253 265.044 335.4C264.867 335.547 264.687 335.69 264.503 335.828C264.319 335.966 264.131 336.099 263.94 336.228C263.749 336.357 263.555 336.48 263.358 336.599C263.161 336.718 262.961 336.832 262.758 336.941C262.555 337.049 262.35 337.152 262.141 337.251C261.933 337.349 261.723 337.442 261.51 337.53C261.297 337.618 261.082 337.7 260.865 337.777C260.648 337.853 260.43 337.925 260.209 337.99L260.048 337.696C261.115 336.379 262.841 335.475 264.097 334.295C265.894 332.605 267.45 330.58 269.039 328.695Z" fill="#2563EB"/>
<path d="M311.753 241.578C311.768 241.592 311.785 241.604 311.797 241.621C312.334 242.363 312.28 243.822 312.217 244.737C311.965 248.376 310.38 251.386 307.632 253.733L307.425 253.483C309.226 249.542 310.754 245.811 311.753 241.578Z" fill="#2563EB"/>
<path d="M176.877 105.917C179.615 105.914 189.78 110.986 193.138 112.272C203.527 116.251 214.313 119.24 225.001 122.286C224.962 124.917 225.009 127.547 225.141 130.175C217.94 133.868 211.407 138.934 204.97 143.794C200.958 147.106 196.424 150.03 192.776 153.734C188.832 152.178 184.787 150.079 181.217 147.789C175.05 143.835 168.829 137.31 167.242 129.919C165.954 123.921 167.029 115.105 170.534 109.957C172.136 107.604 174.156 106.473 176.877 105.917Z" fill="white"/>
<path d="M180.152 113.904C180.985 114.46 181.766 115.246 182.565 115.87C184.378 117.286 186.289 118.656 188.282 119.807C192.73 122.377 197.356 124.442 202.046 126.517C204.533 127.617 207.283 128.658 209.624 130.038C209.992 130.255 210.158 130.42 210.364 130.793C207.346 130.208 200.866 128.078 197.958 126.904C192.346 124.637 182.606 119.684 180.152 113.904Z" fill="#2563EB"/>
<path d="M272.894 363.766C281.22 358.261 292.342 348.525 298.93 341.038C300.517 347.607 302.35 354.107 304.43 360.537C306.51 366.967 308.83 373.309 311.392 379.563C313.009 383.596 315.379 387.356 316.862 391.419C319.584 393.458 322.023 395.202 323.815 398.193C322.385 398.43 320.971 398.595 319.526 398.715C317.917 396.325 316.047 393.931 313.051 393.332C312.027 393.128 311.217 393.169 310.204 393.402L309.862 393.704C313.108 394.814 315.549 395.999 317.416 399.058C314.854 398.934 312.292 399.447 309.72 399.446C307.061 399.49 304.418 399.4 301.758 399.578C292.278 392.673 278.429 374.244 272.894 363.766Z" fill="#FBF9F3"/>
<path d="M224.893 132.354L225.236 132.415C226.057 133.545 226.87 139.184 227.512 141.143C223.853 143.655 220.008 145.891 216.285 148.308C197.368 160.592 179.499 172.035 167.906 192.091C165.851 195.646 163.892 199.359 162.493 203.224C161.021 207.287 160.255 211.486 159.342 215.692C158.867 217.881 158.542 219.695 156.561 220.977C156.328 221.039 155.928 221.18 155.673 221.177C155.202 221.171 154.812 221.03 154.519 220.644C153.303 219.045 154.582 213.77 154.974 211.963C155.67 208.765 156.769 205.674 157.898 202.608C164.737 184.031 176.781 171.091 191.2 158.069C196.444 153.317 201.878 148.794 207.504 144.5C213.129 140.206 218.926 136.158 224.893 132.354Z" fill="#000F30"/>
<path d="M406.579 131.34C406.863 131.295 407.148 131.252 407.435 131.227C408.759 131.114 410.096 131.722 411.071 132.587C412.33 133.704 412.959 135.081 413.035 136.76C413.332 143.303 408.253 149.211 404.427 153.959C403.236 155.436 402.146 156.996 400.887 158.418C398.155 158.621 395.997 158.187 393.448 157.271C392.623 156.919 391.826 156.509 391.058 156.044C388.342 154.404 386.004 151.831 385.301 148.674C384.619 145.606 385.671 141.84 387.373 139.23C388.024 138.232 388.837 137.368 389.898 136.804C391.417 135.998 393.288 135.621 394.924 135.071C398.766 133.778 402.596 132.117 406.579 131.34Z" fill="#000F30"/>
<path d="M408.237 134.099C408.519 134.236 408.386 134.124 408.553 134.514C408.303 135.211 407.88 135.759 407.42 136.331C403.679 140.982 399.116 143.213 393.299 143.823L393.013 143.57C393.561 142.778 397.884 141.167 399.024 140.499C402.275 138.594 405.068 136.103 408.237 134.099Z" fill="#2563EB"/>
<path d="M312.788 109.689C312.608 109.285 312.705 109.473 312.438 109.03C305.478 97.4901 295.33 87.6765 281.954 84.3085C284.876 83.6293 288.109 83.8425 291.084 83.9031C301.034 84.1049 310.82 84.9267 320.484 87.3773L320.969 87.7287C320.989 93.8956 320.494 100.042 322.327 106.061C318.404 106.537 316.001 107.485 312.788 109.689Z" fill="white"/>
<path d="M229.104 105.374C229.42 105.895 229.145 106.039 228.904 106.567C226.786 111.192 225.793 115.938 225.016 120.936C222.895 119.537 220.348 118.929 217.949 118.155C216.71 117.783 215.564 117.342 214.387 116.804C218.033 112.793 224.465 108.291 229.104 105.374Z" fill="#FBF9F3"/>
<path d="M111.936 393.913L112.266 394.021C112.538 394.89 112.327 396.523 112.042 397.389C111.662 398.545 112.183 399.857 111.706 400.891C108.816 401.308 104.919 400.415 102.048 399.848C100.885 399.662 99.7079 399.582 98.5342 399.481C102.931 397.105 107.088 395.222 111.936 393.913Z" fill="#000F30"/>
<path d="M253.419 71.1116C253.53 71.159 253.644 71.1972 253.751 71.2534C255.575 72.2173 266.384 80.9269 266.813 82.449L264.722 82.8075C259.712 78.6295 257.321 76.6687 253.419 71.1116Z" fill="#2563EB"/>
<path d="M320.697 393.038C321.161 393.028 321.63 393.022 322.093 393.069C323.988 393.263 326.388 394.264 327.597 395.767C327.975 396.238 328.318 396.705 328.266 397.332C327.273 397.559 326.257 397.721 325.256 397.909C324.285 395.671 322.627 394.4 320.697 393.038Z" fill="#FBF9F3"/>
</svg>
